<?xml version="1.0" encoding="utf-8"?>
<!-- Generator: Adobe Illustrator 15.1.0, SVG Export Plug-In . SVG Version: 6.00 Build 0)  -->
<!DOCTYPE svg PUBLIC "-//W3C//DTD SVG 1.1//EN" "http://www.w3.org/Graphics/SVG/1.1/DTD/svg11.dtd">
<svg version="1.1" xmlns="http://www.w3.org/2000/svg" xmlns:xlink="http://www.w3.org/1999/xlink" x="0px" y="0px" width="612px"
	 height="792px" viewBox="0 0 612 792" enable-background="new 0 0 612 792" xml:space="preserve">
<g id="Layer_2">
	
		<path fill="#8B5E3C" stroke="#000000" stroke-width="6.5439" stroke-linecap="round" stroke-linejoin="round" stroke-miterlimit="10" d="
		M363.1,33.123c-34.936-6.197-57.387-26.095-93.371-22.679c-22.348,2.113-54.221,9.474-72.748,22.986
		c-9.996,7.291-15.765,18.858-24.013,27.653c-8.16,8.707-19.081,16.022-24.89,26.882c-11.401,21.318-28.478,43.369-36.662,66.914
		c-15.436,44.409-18.665,93.737-20.979,141.09c-1.307,26.778-3.17,48.492-8.385,74.206c-4.506,22.224-4.442,41.721-18.529,62.896
		C45.265,460.516,29.743,470.692,0,479.344c9.219,18.898,20.771,13.993,37.303,16.611c12.295,1.945,21.87,9.058,35.034,9.785
		c25.735,1.421,51.57-4.756,77.036-6.993c51.781-4.534,101.221-19.581,151.895-29.356c26.52-5.113,54.892-16.527,81.476-23.773
		c20.046-5.454,41.701-8.607,62.984-10.335c23.68-1.931,45.844-3.97,68.39-10.771c12.632-3.806,45.586-6.088,45.962-21.996
		c-56.871-11.919-77.709-69.661-63.009-113.119c8.949-26.461,8.583-51.724,8.217-75.784c-0.352-23.199,1.534-62.039-11.662-83.476
		c-24.095-39.132-64.162-64.39-106.754-78.838"/>
	<g>
		
			<path fill="#D19267" stroke="#000000" stroke-width="4.934" stroke-linecap="round" stroke-linejoin="round" stroke-miterlimit="10" d="
			M222.4,441.178c-15.252,20.13-35.442,32.846-53.449,49.605c-20.044,18.655-38.439,37.83-53.501,61.168
			c-0.042,0.896,0.24,1.87,0.126,2.746c-10.354-19.491-34.747-2.563-39.107,13.959c-5.242,19.857,13.973,45.878,25.33,21.927
			c-6.085,5.519-20.066,20.551-16.712,31.104c4.848,15.265,17.92-1.099,21.848-9.112c0.33,11.864-5.34,24.432-2.883,35.583
			c13.426,3.163,14.67-11.206,19.969-21.254c-2.794,6.796-13.213,36.687-4.635,42.384c11.918,7.925,15.144-25.392,17.185-31.574
			c-2.188,7.905-4.212,29.198,8.147,24.951c5.497-13.215-0.096-27.648-1.995-40.973c-0.933-6.544-1.217-13.479-1.02-20.601
			c0.408-14.858,4.925-17.487,14.359-27.802c23.625-25.843,33.593-68.93,62.146-89.708"/>
		
			<path fill="#D19267" stroke="#000000" stroke-width="4.934" stroke-linecap="round" stroke-linejoin="round" stroke-miterlimit="10" d="
			M263.517,440.355c16.547,0,32.391,3.658,44.601,16.018c9.806,9.929,16.3,24.688,24.273,36.177
			c6.157,8.875,13.453,17.215,20.021,25.847c13.666,17.968,28.757,42.483,44.255,58.219c7.103,7.211,16.605,12.765,25.332,15.729
			c9.335,3.168,19.536,0.816,25.684,14.463c3.054,6.786,0.515,15.428-5.633,16.146c-7.691,0.901-16.031-8.404-22.57-13.7
			c13.186,8.711,33.074,23.006,17.022,31.084c-14.027,7.062-29.361-7.41-40.009-23.501c7.326,8.508,21.417,26.668,17.121,35.954
			c-5.925,12.805-19.407-10.488-22.511-18.552c1.618,8.851,6.246,34.089-8.469,24.357c-12.043-7.964-7.667-23.154-12.271-33.157
			c-1.668,6.063-0.203,12.314-4.678,16.116c-7.306,6.211-11.552-4.792-9.953-13.964c2.439-13.923,18.239-11.587,24.852-20.11
			c-9.805-12.443-21.312-23.763-30.425-36.449c-7.984-11.127-13.166-23.293-20.823-34.33c-19.026-27.422-36.001-57.501-58.01-82.848
			"/>
		<path stroke="#000000" stroke-width="4.934" stroke-linecap="round" stroke-linejoin="round" stroke-miterlimit="10" d="
			M206.569,658.893c0,33.113-6.967,63.475-16.636,94.178c-4.034-17.062-26.241-5.351-31.334,4.949
			c-3.809,7.707-4.113,22.867,3.104,29.005c10.761,9.147,28.797,1.268,37.481-6.662c8.781-8.023,18.007-15.403,24.825-25.258
			c18.329-26.491,12.167-60.158,22.034-89.431"/>
		<path stroke="#000000" stroke-width="4.934" stroke-linecap="round" stroke-linejoin="round" stroke-miterlimit="10" d="
			M273.179,669.995c-6.071,25.926-9.724,59.831,1.985,84.614c2.616,5.533,5.251,10.567,6.667,16.497
			c1.233,5.157,1.04,10.043,4.779,14.25c7.253,8.157,23.3,7.899,32.829,5.504c12.849-3.231,24.56-13.587,19.096-28.356
			c-4.668-12.621-25.083-10.513-32.695-2.312c-2.338-6.657-1.475-15.854-1.821-22.991c-0.473-9.666,0.44-19.422,1.218-29
			c0.638-7.84,0.007-13.908-1.854-21.417c-1-4.044-5.669-16.978,0.02-18.641"/>
		
			<path fill="#00877B" stroke="#000000" stroke-width="4.934" stroke-linecap="round" stroke-linejoin="round" stroke-miterlimit="10" d="
			M225.689,423.908c-1.611,4.776-1.054,9.879-2.604,14.8c-1.547,4.909-3.789,9.048-4.935,14.052
			c-2.524,11.022-5.13,22.773-7.399,34.059c-1.22,6.073-2.589,12.132-4.027,18.378c-1.289,5.598-1.047,11.824-2.576,17.358
			c-2.745,9.943-8.479,20.773-12.842,30.252c-10.268,22.309-20.536,43.819-33.148,64.791c-7.1,11.811-13.98,20.22-25.584,26.956
			c-9.625,5.583-19.667,9.088-29.805,13.726c-7.308,3.341-14.978,7.301-21.199,12.27c4-3.969,22.479,1.406,28.178,1.292
			c5.158-0.099,10.773-1.148,16.042-1.846c11.938-1.594,23.632-4.9,35.63-6.647c11.333-1.653,22.875-0.148,34.185,0.48
			c10.114,0.559,19.897,0.197,29.844,1.727c7.999,1.228,16.01,4.46,23.691,5.534c28.661,3.999,62.816,2.589,90.032-5.262
			c5.217-1.505,35.727-0.678,36.875-3.979c0.984-2.812-15.637-8.632-18.571-11.018c-4.574-3.728-7.707-7.315-11.369-11.845
			c-8.311-10.285-19.744-17.344-27.303-28.198c-6.986-10.028-10.187-21.397-12.8-33.475c-4.601-21.259-10.162-41.844-15.725-63.36
			c-4.665-18.026-6.229-35.767-10.468-53.516c-2.099-8.796-4.947-15.805-5.385-24.808c-0.404-8.32-2.396-15.725-4.947-23.441"/>
		
			<path fill="#FFF200" stroke="#000000" stroke-width="4.934" stroke-linecap="round" stroke-linejoin="round" stroke-miterlimit="10" d="
			M267.628,652.106c1.648-9.973,9.288-19.13,14.322-27.618c4.905-8.267,6.924-16.513,8.481-26.041
			c0.683-4.172,2.737-10.453,0.03-14.2c-3.596-4.97-12.31-3.247-16.544,0.168c-3.925,3.168-11.156,31.06-14.955,12.8
			c-1.111-5.346-1.596-20.862-11.699-15.26c-6.301,3.495-4.318,16.176-3.655,22.046c2.111,18.665,12.788,33.86,23.405,48.725"/>
		
			<path fill="#EC008C" stroke="#000000" stroke-width="4.934" stroke-linecap="round" stroke-linejoin="round" stroke-miterlimit="10" d="
			M206.569,649.642c2.086-8.156,12.862-14.942,17.734-21.743c4.945-6.9,10.149-16.369,12.951-24.531
			c2.856-8.325,2.888-19.808-9.548-13.413c-8.019,4.123-15.134,10.077-22.553,15.245c-1.277-5.618-3.495-20.605-8.89-24.204
			c-11.446-7.632-17.054,8.598-16.349,16.22c1.737,18.809,8.983,43.775,27.889,52.427"/>
		
			<path fill="#EC008C" stroke="#000000" stroke-width="4.934" stroke-linecap="round" stroke-linejoin="round" stroke-miterlimit="10" d="
			M231.24,525.055c2.881-6.717,4.623-17.592,8.635-23.283c3.091,6.969,3.146,16.318,8.184,22.051
			c3.25,3.697,5.873,3.138,11.61,3.688c7.417,0.712,10.56,2.212,4.291,8.033c-6.912,6.409-12.421,7.082-11.783,17.299
			c0.431,6.885,0.894,15.403-1.294,22.08c-8.736,0.737-9.147-16.17-18.888-15.339c-5.365,0.46-14.777,8.548-19.92,11.082
			c-2.358-4.519,9.951-14.606,9.808-21.075c-0.183-8.251-12.055-14.592-10.765-22.591c6.457-0.133,12.423-0.93,18.888-1.326"/>
		
			<path fill="#FFF200" stroke="#000000" stroke-width="4.934" stroke-linecap="round" stroke-linejoin="round" stroke-miterlimit="10" d="
			M237.408,458.447c2.809-3.144,3.173-9.756,6.68-11.023c1.195,3.188,0.997,6.939,2.438,9.785
			c3.301,6.544,12.025,4.436,19.163,6.291c0.017,0.436,0.21,0.808,0.443,1.129c-4.14,3.024-12.508,6.217-14.552,10.454
			c-2.537,5.261-0.918,13.923-3.178,19.733c-4.294-3.098-3.987-9.067-7.14-13.087c-4.15-5.296-6.749-1.812-11.914,0.877
			c0.086-4.079,4.482-8.712,3.604-12.919c-0.869-4.158-5.692-6.509-5.935-11.146c4.242-0.218,8.583-0.094,12.859-0.094"/>
		
			<path fill="#58595B" stroke="#000000" stroke-width="4.934" stroke-linecap="round" stroke-linejoin="round" stroke-miterlimit="10" d="
			M214.587,517.036c-5.017,5.054-4.354,14.205-9.404,19.601c-4.462,4.771-16.973,2.465-15.79,12.379
			c9.261,0.534,10.889-0.574,10.407,9.345c-0.349,7.177-1.383,14.567-2.5,21.586c-0.973,6.127-3.326,12.126-3.099,18.501
			c0.23,6.41,2.878,12.726,3.21,19.027c6.053,0.638,6.281-11.127,7.273-15.324c1.433-6.049,4.747-11.325,6.355-17.226
			c2.764-10.132,5.791-23.485,4.873-33.875c7.974-0.144,15.698-2.252,10.318-11.701c-3.175-0.173-6.43-0.024-9.61-0.232
			c1.653-5.059,13.339-31.648-2.65-22.694"/>
		
			<path fill="#939598" stroke="#000000" stroke-width="4.934" stroke-linecap="round" stroke-linejoin="round" stroke-miterlimit="10" d="
			M270.711,547.259c-4.158,20.961-0.525,45.076-7.786,64.801c4.955,0.192,10.292-0.095,15.094-0.753
			c2.02-9.874-0.408-21.204,0.094-31.316c0.274-5.549-0.268-11.142,0-16.695c0.25-5.246,2.341-10.166,1.851-15.418"/>
		
			<path fill="#58595B" stroke="#000000" stroke-width="4.934" stroke-linecap="round" stroke-linejoin="round" stroke-miterlimit="10" d="
			M295.999,527.524c-6.885,2.237-14.401,4.023-20.954,6.766c-8.41,3.515-8.927,7.741-8.578,16.577
			c6.593,0.376,12.971-0.961,19.391-1.896c3.024-0.44,10.993,0.095,13.252-2.158c2.675-2.667,2.47-19.704-2.495-17.438"/>
		<path stroke="#000000" stroke-width="4.934" stroke-linecap="round" stroke-linejoin="round" stroke-miterlimit="10" d="
			M308.95,592.28c-29.639,0.272-58.943-7.043-88.164-8.632c-7.959-0.431-15.54-0.56-23.454,0
			c-3.881,0.272-18.168,3.568-21.477,1.139c-6.225-4.569,4.615-23.615,10.332-25.843c5.329-2.073,14.391-2.163,20.197-2.435
			c10.382-0.485,20.576-1.232,31.044-1.232c13.872,0,27.421,1.851,41.303,1.851c7.063,0,17.458-2.688,24.006-1.144
			c10.357,2.445,6.808,28.322,5.596,36.296"/>
	</g>
</g>
<g id="Layer_3">
	
		<path fill="#D19267" stroke="#000000" stroke-width="6.5439" stroke-linecap="round" stroke-linejoin="round" stroke-miterlimit="10" d="
		M327.516,68.083c-25.782,1.252-42.71,13.092-65.372,24.12c-19.167,9.325-40.56,10.721-58.03,25.872
		c-15.965,13.849-25.921,42.156-31.77,61.945c-7.073,23.941-2.604,45.21-2.836,69.839c-0.111,11.929-4.046,21.368-6.685,32.153
		c-3.551,14.532-1.569,24.323,0.782,39.687c3.648,23.847,9.157,43.725,19.536,65.509c8.343,17.506,14.656,45.843,28.698,59.495
		c27.136,26.377,39.864-0.366,58.695-17.517c16.666-15.176,42.933-20.185,57.327-36.667c7.138-8.177,10.89-17.552,19.195-25.204
		c12.062-11.117,22.466-20.318,33.593-33.628c12.35-14.78,26.501-27.228,32.118-45.834c3.108-10.295,4.276-20.729,7.38-31.391
		c3.99-13.726,2-24.422,5.247-37.365c2.91-11.607,9.736-21.932,12.656-33.559c8.325-33.192-1.039-80.14-36.43-95.083"/>
	
		<path fill="#FFFFFF" stroke="#000000" stroke-width="6.5439" stroke-linecap="round" stroke-linejoin="round" stroke-miterlimit="10" d="
		M215.775,154.558c-11.083,10.444-14.589,22.219-15.31,37.103c-0.302,6.211-1.19,13.255,1.102,19.026
		c1.708,4.296,4.133,11.948,7.372,15.309c6.371,6.618,11.243-5.89,13.852-10.117c3.366-5.459,7.481-10.676,9.308-16.849
		c4.019-13.602,2.047-27.782-5.754-39.73c-1.839-2.821-5.281-6.138-8.749-5.108"/>
	
		<path fill="#FFFFFF" stroke="#000000" stroke-width="6.5439" stroke-linecap="round" stroke-linejoin="round" stroke-miterlimit="10" d="
		M320.755,139.249c-12.142,8.469-12.463,24.283-13.122,37.929c-0.386,8.028-2.93,15.987-3.662,24.045
		c-0.673,7.395-0.807,19.591,5.123,24.783c14.428,12.637,21.446-19.318,24.511-27.356c2.767-7.246,1.712-13.087,2.108-20.759
		c0.366-7.083,0.673-13.226-0.822-19.977c-1.678-7.612-3.91-16.274-13.037-17.571"/>
	
		<path fill="#D27B86" stroke="#000000" stroke-width="6.5439" stroke-linecap="round" stroke-linejoin="round" stroke-miterlimit="10" d="
		M201.193,312.764c8.231-0.629,6.209,8.612,8.649,13.141c3.047,5.663,9.62,6.123,15.052,8.276
		c7.028,2.782,12.513,6.613,20.747,6.306c8.112-0.302,16.121-3.074,23.793-5.574c13.468-4.375,28.596-3.722,39.298-13.75
		c2.623-2.46,5.395-4.92,7.672-7.672c2.405-2.91,3.276-6.217,5.172-9.395c3.029-5.078,5.95-10.434,9.677-14.641
		c1.108,5.791,0.5,12.642-0.005,18.571c-0.653,7.637-3.935,12.889-7.93,19.293c-8.311,13.325-13.433,25.976-28.44,33.104
		c-14.943,7.103-29.535,8.939-46.002,9.553c-8.766,0.322-15.666-2.678-23.615-5.37c-6.066-2.054-10.592-3.396-14.5-8.915
		c-5.175-7.306-5.7-14.201-7.38-22.526c-1.2-5.939-5.573-13.958-3.646-20.041"/>
	
		<path fill="none" stroke="#000000" stroke-width="6.5439" stroke-linecap="round" stroke-linejoin="round" stroke-miterlimit="10" d="
		M207.391,324.792c0.695,7.954,2.116,14.547,8.12,19.957c7.967,7.177,18.799,11.458,29.48,10.944
		c8.669-0.416,18.079-4.806,26.557-7.107c8.244-2.237,14.792-4.296,21.771-9.211c5.543-3.905,9.434-7.722,13.953-12.666
		c4.084-4.47,9.133-8.355,11.296-14.31"/>
	<path stroke="#000000" stroke-width="6.5439" stroke-linecap="round" stroke-linejoin="round" stroke-miterlimit="10" d="
		M320.755,178.252c-2.841,0.5-4.197,5.826-5.731,8.103c-2.51,3.722-3.426,6.247-1.856,10.795c3.242-0.02,4.257-5.924,5.147-8.241
		c1.282-3.351,2.064-5.692,2.079-9.563"/>
	<path stroke="#000000" stroke-width="6.5439" stroke-linecap="round" stroke-linejoin="round" stroke-miterlimit="10" d="
		M210.306,182.994c-3.371,1.173-0.582,4.361-0.364,6.563c0.148,1.51-2.104,7.331-0.292,8.311c4.118,2.228,4.457-12.364,2.844-14.507
		"/>
	<path stroke="#000000" stroke-width="6.5439" stroke-linecap="round" stroke-linejoin="round" stroke-miterlimit="10" d="
		M351.744,0c3.965,1.985,9.751,4.871,12.766,8.023c2.539,2.658,5.088,5.697,7.559,8.464c3.202,3.588,6.34,7.281,9.637,10.835
		c3.846,4.147,8.464,7.538,11.34,12.414c1.851,3.138,3.875,6.543,5.459,9.86c1.955,4.098,1.49,5.395,6.454,5.454
		c12.142,0.139,22.783,0.436,29.54,11.682c1.396,2.321,2.9,5.603,1.802,8.335c6.325-1.119,11.716-4.821,18.239-6.078
		c5.559-1.069,10.479-2.277,16.106-2.277c12.532,0,22.046,1.861,32.786,8.741c6.212,3.975,10.914,5.989,14.992,12.038
		c2.347,3.489,4.979,6.613,6.559,10.572c1.589,3.984,2.841,9.379,0.599,13.532c-1.925,3.569-6.909,6.731-10.176,9.459
		c-6.415,5.36-12.89,10.854-19.017,16.448c-7.321,6.682-17.557,10.261-26.283,14.799c-8.241,4.287-15.963,9.741-23.58,15.007
		c-7.835,5.405-13.146,11.731-18.705,19.586c-2.019-9.528-7.815-18.794-11.566-27.976c-3.213-7.865-5.465-15.601-7.657-23.773
		c-2.396-8.934,0.228-17.284,1.658-26.184c-8.276,0.094-16.354,1.738-23.105-3.959c-3.163-2.668-6.059-6.405-7.751-10.211
		c-4.95,3.183-13.176,3.004-18.962,2.46c-7.499-0.713-14.592-2.297-21.823-4.396c-4.767-1.381-9.959-2.148-14.582-3.91
		c-2.321-0.881-3.762-2.604-5.806-3.732c-2.312-1.282-5.37-1.421-7.311-3.193L351.744,0z"/>
</g>
</svg>
