<?xml version="1.0" encoding="utf-8"?>
<!-- Generator: Adobe Illustrator 15.1.0, SVG Export Plug-In . SVG Version: 6.00 Build 0)  -->
<!DOCTYPE svg PUBLIC "-//W3C//DTD SVG 1.1//EN" "http://www.w3.org/Graphics/SVG/1.1/DTD/svg11.dtd">
<svg version="1.1" id="Layer_1" xmlns="http://www.w3.org/2000/svg" xmlns:xlink="http://www.w3.org/1999/xlink" x="0px" y="0px" viewBox="0 0 100 100" xml:space="preserve">
<g>
	<path fill="#ED1C24" stroke="#000000" stroke-linecap="round" stroke-miterlimit="10" d="M29.69,80.161
		C42.074,98.44,78.312,91.474,72.332,66.625c-4.574-19.019-18.676-29.437-15.879-51.729c-6.797,19.117-29.061,35.568-27.28,57.001"
		/>
	<path fill="#FFF200" stroke="#EF4136" stroke-width="3" stroke-linecap="round" stroke-miterlimit="10" d="M46.335,86.363
		c35.253-9.044,14.592-25.34,8.562-51.517C54.548,42.127,35.887,83.678,46.335,86.363z"/>
</g>
<g>
	<path fill="#ED1C24" stroke="#000000" stroke-linecap="round" stroke-miterlimit="10" d="M46.335,66.405
		c-4.99-5.509-7.77-55.482-14.478-56.305c2.068,8.803-8.16,35.973-11.569,41.138C3.184,80.379,34.173,115.68,46.116,83.57"/>
	<path fill="#FFF200" stroke="#EF4136" stroke-width="3" stroke-linecap="round" stroke-miterlimit="10" d="M42.533,82.229
		c-2.04,8.839-17.416,14.15-19.631,2.815C19.74,68.865,35.278,52.676,34.88,35.76C38.028,45.046,45.354,73.521,42.533,82.229z"/>
</g>
<g>
	<path fill="#ED1C24" stroke="#000000" stroke-linecap="round" stroke-miterlimit="10" d="M58.098,60.331
		c-0.862-10.33,4.199-32.734,16.399-38.948c-9.622,12.532,13.547,36.876,5.939,54.989c-4.135,9.838-17.139,11.231-20.17,1.624"/>
	<path fill="#FFF200" stroke="#EF4136" stroke-width="3" stroke-linecap="round" stroke-miterlimit="10" d="M68.015,35.331
		c-2.688,5.268-12.235,57.368,6.515,42.975C85.892,69.589,69.253,53.301,68.015,35.331z"/>
</g>
</svg>
