<?xml version="1.0" encoding="utf-8"?>
<!-- Generator: Adobe Illustrator 15.1.0, SVG Export Plug-In . SVG Version: 6.00 Build 0)  -->
<!DOCTYPE svg PUBLIC "-//W3C//DTD SVG 1.1//EN" "http://www.w3.org/Graphics/SVG/1.1/DTD/svg11.dtd">
<svg version="1.1" xmlns="http://www.w3.org/2000/svg" xmlns:xlink="http://www.w3.org/1999/xlink" x="0px" y="0px" width="400px"
	 height="792px" viewBox="0 0 400 792" enable-background="new 0 0 612 792" xml:space="preserve">
<g id="Layer_2">
	<path fill="#414042" stroke="#000000" stroke-width="5.9647" stroke-linecap="round" stroke-miterlimit="10" d="M304.287,568.63
		c22.929,0.632,17.706,26.958,10.961,39.765c-7.364,13.982-17.959,25.341-33.83,26.838c-41.01,3.868-46.748-31.242-43.52-63.398
		c1.79-17.848,1.108-38.145-8.944-53.928c-13.097-20.564-51.195-18.217-59.869,6.038c-11.07,30.959,6.427,73.251,20.602,99.586
		c12.371,22.988,13.86,47.549,18.169,73.123c0.715,4.249,0.016,24.643,2.918,27.812c4.185,4.569,11.8,37.146,14.976,48.933
		c5.853,21.715-32.805,16.225-45.729,13.915c-34.105-6.093-23.638-64.852-25.075-91.163c-1.097-20.061-7.198-42.524-19.638-58.703
		c-7.428-9.664-18.782-15.669-25.098-25.825c-5.046-8.114-7.292-17.723-8.721-27.083c-3.581-23.439-1.933-46.958-0.976-70.412
		c0.265-6.485,1.753-15.142,0.98-21.337c-1.376-11.021-12.123-20.069-16.632-30.775c-5.833-13.852-9.853-28.105-13.951-42.752
		c-8.532-30.508-27.679-70.409-23.288-102.157c4.308-31.15,22.486-41.038,49.11-58.59c17.585-11.595,34.626-18.292,55.883-18.959
		c21.305-0.67,35.133,5.913,52.18,17.335c9.03,6.052,16.088,11.914,22.368,20.635c5.232,7.267,7.961,14.976,13.527,21.701
		c8.481,10.246,15.755,16.391,19.078,29.819c2.251,9.098,6.166,27.015,2.764,35.79"/>
	<path fill="#58595B" d="M275.457,486.123c-13.835,7.846-25.749,11.216-29.85,27.834c-3.039,12.312,1.564,26.88,4.059,38.722
		c2.347,11.148,3.841,29.518,10.138,38.791c8.44,12.431,35.855,13.243,42.494,0.032"/>
	<path fill="#58595B" stroke="#000000" stroke-width="5.9647" stroke-linecap="round" stroke-miterlimit="10" d="M212.829,344.953
		c16.163-9.244,41.9-12.669,59.643-6.234c15.352,5.567,21.972,19.089,26.875,33.023c5.464,15.532,17.41,26.599,23.553,41.808
		c6.882,17.032,1.663,30.098-2.461,46.722c-2.709,10.913-3.818,21.268-4.222,33.027c-0.391,11.377,3.016,23.329,1.043,34.571
		c-3.964,22.571-20.069,37.993-13.967,61.637"/>
	<path fill="#58595B" stroke="#000000" stroke-width="5.9647" stroke-linecap="round" stroke-miterlimit="10" d="M200.897,397.648
		c0.07,8.877,1.155,16.438,5.965,23.911c4.007,6.227,11.755,10.342,14.714,16.825c8.392,18.384-9.063,27.308-18.96,38.596
		c-9.755,11.126-21.376,19.249-31.296,30.27c-10.263,11.405-13.553,28.673-15.208,43.492c-2.167,19.382,3.945,36.07,21.893,46.447
		c16.185,9.358,37.023,12.104,49.537-3.698c11.701-14.778,10.303-34.009,17.319-49.463c7.223-15.91,25.303-29.541,36.26-42.968
		c15.807-19.373,23.247-34.611,9.024-57.684c-7.133-11.568-9.188-19.205-10.489-32.855c-0.929-9.745-2.078-19.875-6.187-28.778"/>
	<path fill="#58595B" stroke="#000000" stroke-width="5.9647" stroke-linecap="round" stroke-miterlimit="10" d="M53.767,303.206
		c-8.516,19.015-26.464,34.092-33.796,53.732c-5.296,14.189-4.776,33.048-4.003,48.661c0.868,17.527,0.592,32.661-2.905,49.716
		c-3.381,16.499-11.994,35.984-13.001,52.678c-0.984,16.311,10.096,39.284,21.593,50.663c14.39,14.241,50.639,25.26,69.89,14.946
		c29.643-15.882,18.424-66.241,0.249-85.737c-15.048-16.141-16.489-37.851-0.249-54.431"/>
	<path fill="#58595B" stroke="#000000" stroke-width="5.9647" stroke-linecap="round" stroke-miterlimit="10" d="M67.019,495.507
		c-28.679,3.641-41.345,42.601-28.717,66.153c9.757,18.206,30.533,34.645,50.929,21.229c10.391-6.83,23.362-19.089,30.854-44.438
		c4.881-16.52-5.994-31.414-22.725-38.698"/>
	<path stroke="#000000" stroke-width="5.444" stroke-linecap="round" stroke-miterlimit="10" d="M94.757,531.849
		c0.044-6.425-8.592-20.676,0-20.679c12.126-0.006,8.722,18.509,0.83,22.665"/>
	<path stroke="#000000" stroke-width="5.0888" stroke-linecap="round" stroke-miterlimit="10" d="M78.622,545.721
		c-6.356-2.982-18.861-15.983-23.559-9.987c-10.805,13.782,17.554,13.604,23.559,11.683"/>
	<path stroke="#000000" stroke-width="5.4155" stroke-linecap="round" stroke-miterlimit="10" d="M69.675,558.143
		c-7.162-1.61-14.312-6.038-21.721-3.134c-3.116,11.391,16.751,12.518,22.714,5.592"/>
	<path stroke="#000000" stroke-width="5.9647" stroke-linecap="round" stroke-miterlimit="10" d="M99.499,541.789
		c-5.82,4.972-34.201,24.427-24.875,31.836c4.93,3.914,19.221-2.531,23.134-5.962c6.266-5.493,8.882-13.514,7.555-21.724
		c-1.523-0.583-3.208-1.145-4.82-1.168"/>
	<path stroke="#000000" stroke-width="5.7611" stroke-linecap="round" stroke-miterlimit="10" d="M67.77,522.474
		c7.543-5.464,17.638-4.028,19.434,11.085c1.644,13.831-14.748,1.68-17.602-8.19"/>
	<path fill="#58595B" stroke="#000000" stroke-width="5.9647" stroke-linecap="round" stroke-miterlimit="10" d="M169.539,750.945
		c-8.716,3.564-17.538,9.73-22.54,14.483c-3.651,3.469-11.174,12.547-9.795,17.892c3.022,11.719,32.348,7.799,41.548,8.256
		c12.398,0.618,41.418,3.292,44.069-13.199c1.82-11.32-5.56-18.945-14.56-23.817"/>
	<path fill="#58595B" stroke="#000000" stroke-width="5.9647" stroke-linecap="round" stroke-miterlimit="10" d="M47.625,317.105
		c4.308-31.15,22.486-41.038,49.11-58.59c17.585-11.595,34.626-18.292,55.883-18.959c21.305-0.67,35.133,5.913,52.18,17.335
		c9.03,6.052,16.088,11.914,22.368,20.635c5.232,7.267,7.961,14.976,13.527,21.701c8.481,10.246,15.755,16.391,19.078,29.819
		c2.251,9.098,6.166,27.015,2.764,35.79"/>
	<path fill="#58595B" stroke="#000000" stroke-width="5.9647" stroke-linecap="round" stroke-miterlimit="10" d="M222.175,595.94
		c0.466,8.184-2.085,16.065-9.348,20.685c-14.465,9.2-31.337,10.217-45.229,1.142c-6.949-4.541-22.484-14.129-26.348-19.307
		c-5.254-18.695,6.317-30.854,22.061-35.783"/>
	<path stroke="#000000" stroke-width="4.5619" stroke-linecap="round" stroke-miterlimit="10" d="M174.669,592.946
		c-9.608-1.261-16.607,9.352-8.104,14.568c11.64,7.142,8.274-9.107,8.104-13.17"/>
	<path stroke="#000000" stroke-width="4.7936" stroke-linecap="round" stroke-miterlimit="10" d="M190.394,598.952
		c-5.82,5.201-15.066,23.183-0.594,17.83c9.809-3.629,9.694-21.153-0.928-16.991"/>
	<path fill="none" stroke="#000000" stroke-width="4.7936" stroke-linecap="round" stroke-miterlimit="10" d="M200.401,615.354
		c2.374-3.76,5.24-10.205,10.375-9.855C210.107,609.204,203.753,613.549,200.401,615.354"/>
	<path fill="none" stroke="#000000" stroke-width="4.7936" stroke-linecap="round" stroke-miterlimit="10" d="M152.683,598.952
		c-0.759-3.288-2.615-10.025,3.393-8.872c1.284,3.627,0.537,7.043-1.902,9.865"/>
	<path fill="#ED1C24" d="M204.624,699.612c-4.637-1.205-10.461,0.073-11.43,5.718c-0.325,1.887,0.608,3.955,1.842,5.28
		c2.05,2.198,2.982,2.044,2.374,5.405c-0.686,3.792-3.86,8.01-1.733,11.944c1.003,1.854,2.868,2.624,3.486,4.706
		c0.566,1.908,0.067,4.18,0.242,6.227c0.67,7.844,7.937,7.604,13.919,10.177"/>
	<path fill="#ED1C24" stroke="#000000" stroke-width="5.9647" stroke-linecap="round" stroke-miterlimit="10" d="M203.631,699.86
		c3.294,9.316,14.508,12.281,22.125,16.589c-5.26,3.472-14.88,1.063-20.537-0.855c1.07,9.5,15.525,17.366,23.742,20.183
		c-4.521,5.561-14.117,2.869-19.885,1.456c4.309,4.855,12.055,5.08,16.623,9.763c-2.946,3.618-10.438,1.369-12.375,2.074"/>
	<path fill="#ED1C24" d="M110.432,404.605c3.528-4.027,3.487-9.369,8.491-12.383c4.376-2.639,9.755-3.37,14.995-2.901
		c8.707,0.78,19.862,5.691,16.776,16.03"/>
	<path fill="#ED1C24" stroke="#000000" stroke-width="5.9647" stroke-linecap="round" stroke-miterlimit="10" d="M110.432,404.605
		c-3.231,9.763,0.003,22.068-7.233,30.459c5-0.05,10.632-4.937,13.795-8.592c1.784,8.868,4.462,24.602-1.884,32.319
		c8.313-3.824,13.998-11.085,18.27-18.34c1.444,6.373,4.302,13.546,2.499,20.018c5.306-2.123,7.652-10.528,8.254-15.541
		c3.425,5.411,9.667,7.563,16.139,7.284c-0.408-6.684-9.112-13.86-10.957-20.652c6.852,1.725,14.207,1.823,21.504-0.3
		c-7.48-4.651-25.659-14.452-20.125-25.909"/>
	<path fill="#ED1C24" d="M46.684,338.248c9.894-2.277,29.875-9.664,32.731-20.888c0.821-3.227-1.856-11.376-4.007-13.799
		c-3.179-3.585-9.5-2.592-13.812-2.592"/>
	<path fill="#ED1C24" d="M217.052,316.999c-12.458,0.696-20.771-9.085-22.367-20.142c-0.846-5.858,1.283-8.978,4.762-14.135
		c1.466-2.171,2.277-4.546,4.557-6.076c2.768-1.855,5.778-1.064,8.947-1.773"/>
	<path fill="#ED1C24" stroke="#000000" stroke-width="5.9647" stroke-linecap="round" stroke-miterlimit="10" d="M203.631,250.269
		c10.651,7.915,27.815,5.784,40.242,8.33c-5.598,7.52-15.655,9.072-22.31,14.597c7.999,2.111,13.732,4.287,22.069,4.773
		c-2.54,7.328-8.037,14.711-16.08,15.689c6.543,6.444,23.463,6.833,31.938,5.971c-4.925,4.98-12.391,11.123-18.586,14.76
		c-7.731,4.542-15.703,2.982-24.599,2.982"/>
	<path fill="#ED1C24" stroke="#000000" stroke-width="5.9647" stroke-linecap="round" stroke-miterlimit="10" d="M68.487,293.591
		c-0.695-0.029-1.258-0.961-1.71-1.416c-1.456-1.465-3.081-2.853-4.781-4.028c-1.659-1.15-5.983-4.602-7.824-2.368
		c-2.016,2.445-4.203,4.519-6.856,6.271c-3.256,2.149-6.81,3.786-10.304,5.5c-1.7,0.833-3.393,1.685-5.03,2.637
		c-0.382,0.221-4.446,2.975-4.399,3.018c5.314,4.904,15.318,6.269,22.414,6.116c-6.413,8.046-18.064,1.745-25.082,6.131
		c4.45,5.417,11.072,8.291,17.446,10.683c-4.816,4.433-12.993,2.838-18.955,5.385c6.348,4.311,15.283,9.688,22.905,7.473"/>
	<path fill="#58595B" d="M201.892,396.655c0-25.758-0.655-43.644-29.673-51.868c-1.047-9.825,22.701-8.889,29.353-8.775
		c14.462,0.249,28.88,6.595,34.392,20.876c5.982,15.5,4.111,42.202-15.185,47.718"/>
	<path fill="#58595B" d="M91.544,430.454c5.794-13.386-3.297-28.167,2.982-40.76c6.387-12.812,17.729-18.838,15.928-35.986
		c-1.331-12.687-11.771-33.001-24.875-36.585c-19.586-5.354-33.876,7.641-32.806,26.841"/>
</g>
<g id="Layer_4">
	<path fill="#F7941E" stroke="#000000" stroke-width="5.9647" stroke-linecap="round" stroke-miterlimit="10" d="M59.487,0.861
		C53.161,4.654,47.24,16.048,43.207,21.855c-5.384,7.748-8.75,15.174-11.795,23.874c-1.768,5.055-4.8,9.131-5.368,14.524
		c-0.514,4.87-0.503,9.546-1.217,14.306c-1.245,8.315-1.644,17.105-2.872,25.35c-2.665,17.915-15.67,36.733-4.972,55.197
		c6.049,10.438,14.9,15.313,26.879,15.395c17.151,0.12,35.078-3.235,47.668-15.034c19.857-18.604,12.742-52.069,10.065-75.913
		c-2.257-20.106-8.896-41.168-19.607-58.788C78.417,14.889,66.081,3.746,59.487,0.861z"/>
	<path fill="#ED1C24" stroke="#000000" stroke-width="5.9647" stroke-linecap="round" stroke-miterlimit="10" d="M83.591,123.27
		c-2.146-21.031-32.136-18.742-46.876-16.117c9.081-9.571,23.087-7.507,34.542-10.6c-10.843-5.532-26.713-5.11-39.219-2.55
		C37,82.062,59.938,81.701,70.722,84.042c-4.117-6.269-5.12-8.28-10.603-13.473c-3.627-3.437-14.875-10.194-15.413-14.823
		c8.094,0.497,14.69,3.027,21.498,7.89c5.161,3.688,9.3,7.353,12.636,12.681c3.271,5.224,9.463,6.483,14.195,9.921"/>
	<path fill="#F7941E" stroke="#000000" stroke-width="5.9647" stroke-linecap="round" stroke-miterlimit="10" d="M235.691,61.139
		c-1.488,9.532-2.276,19.562-3.093,29.227c-0.69,8.183-0.319,18.225,2.598,25.944c5.347,14.15,9.112,31.894-1.382,45.248
		c-5.212,6.63-10.837,12.636-19,14.778c-14.551,3.818-21.626-4.21-32.853-12.701c-10.53-7.964-16.722-18.786-23.687-29.466
		c-2.981-4.569-5.165-6.305-5.704-11.892c-0.418-4.336-0.275-8.05,0.624-12.279c3.165-14.909,9.1-31.875,21.875-41.277
		c15.499-11.404,40.995-14.152,59.13-8.576"/>
	<path fill="#58595B" stroke="#000000" stroke-width="5.9647" stroke-linecap="round" stroke-miterlimit="10" d="M153.676,114.821
		c-1.447-5.997,4.433-17.577,7.345-23.361c3.215-6.384,7.323-12.885,12.509-17.895c15.044-14.532,39.703-9.849,58.655-8.862
		c11.842,0.614,24.15-0.33,35.925-0.583c3.437-0.073,11.624,0.696,14.191-1.953c4.203-4.335-4.957-5.617-8.337-6.496
		c-8.589-2.24-17.185-4.278-25.849-6.85c-4.452-1.319-8.698-3.154-13.284-4.223c-10.783-2.514-21.702-0.692-32.445,1.251
		c-30.737,5.56-51.859,40.991-50.204,69.965"/>
	<path fill="#58595B" stroke="#000000" stroke-width="5.9647" stroke-linecap="round" stroke-miterlimit="10" d="M80.11,112.086
		c1-16.857,2.63-34.478,0.995-51.335c-0.772-7.954-2.567-15.313-4.487-22.985c-1.88-7.508-4.2-13.255-8.81-19.886
		C63.908,12.274,57.221,7.756,59.732,0c7.341,2.114,17.696,12.256,21.747,18.42c4.356,6.63,8.609,14.124,12.052,21.338
		c9.278,19.44,15.765,40.935,19.994,62.131c1.229,6.163,4.59,13.98,3.865,20.392"/>
	<path fill="#ED1C24" stroke="#000000" stroke-width="5.9647" stroke-linecap="round" stroke-miterlimit="10" d="M158.071,130.493
		c3.479-21.427,14.594-46.742,29.768-52.544c6.862-2.624,12.365,1.282,18.678,3.603c7.759,2.852,15.285,3.338,23.126,4.349
		c-12.276,9.6-57.406-0.367-55.057,37.757c6.926-18.034,27.057-26.981,39.981-24.992c-6.429,7.084-22.12,13.917-28.812,26.035
		c8.101-16.094,27.817-8.886,38.751-16.591c-1.817,13.189-19.51,12.669-24.999,19.16c6.186-0.148,24.443-3.146,27.981,5.941
		c-5.417,1.545-15.164,1.388-20.589,4.599c6.286,5.173,19.457,5.301,25.063,5.094c-7.329,6.674-18.391,9.196-27.587,19.634"/>
</g>
<g id="Layer_3">
	<path fill="#58595B" stroke="#000000" stroke-width="5.9647" stroke-linecap="round" stroke-miterlimit="10" d="M117.888,106.369
		c16.083,0.384,32.522-4.852,48.464-1.34c15.172,3.344,30.419,14.41,39.474,26.871c21.635,29.772,10.043,72.152,11.504,106.063
		c0.79,18.315,0.087,33.892-9.64,49.976c-10.211,16.882-30.857,31.072-37.173,49.777c-4.603,13.629,0.191,27.076-14.181,35.787
		c-11.676,7.078-26.68,8.775-40.043,7.485c-11.117-1.072-23.939-4.532-31.204-13.68c-11.565-14.559-4.998-35.014-17.746-49.983
		c-10.994-12.914-21.51-22.691-28.026-38.847c-7.502-18.602-14.586-35.51-16.563-55.675c-3.201-32.593-8.822-77.974,17.035-103.667
		C58.871,100.173,93.685,105.792,117.888,106.369C137.824,106.844,97.952,105.895,117.888,106.369z"/>
	<path stroke="#000000" stroke-width="5.9647" stroke-linecap="round" stroke-miterlimit="10" d="M75.389,289.785
		c2.772,11.53,9.192,21.456,11.187,32.806c2.408,13.715,15.951,24.437,29.82,24.604c9.207,0.112,24.026-1.567,28.892-10.623
		c2.592-4.823,1.226-11.96,2.257-17.13c1.129-5.656,3.331-9.454,7.062-13.815c40.565-47.429-83.962-56.369-78.472-14.351"/>
	<path fill="#BE1E2D" stroke="#000000" stroke-width="5.9647" stroke-linecap="round" stroke-miterlimit="10" d="M100.739,288.293
		c2.027,17.344-13.193,65.7,15.474,65.612c17.607-0.053,19.559-8.869,21.64-23.859c1.674-12.061,1.657-25.01,1.657-37.28
		c0-1.988,0-3.976,0-5.965"/>
	
		<circle fill="#BE1E2D" stroke="#000000" stroke-width="5.9647" stroke-linecap="round" stroke-miterlimit="10" cx="73.898" cy="201.805" r="14.912"/>
	
		<circle fill="#BE1E2D" stroke="#000000" stroke-width="5.9647" stroke-linecap="round" stroke-miterlimit="10" cx="169.969" cy="201.805" r="14.912"/>
	
		<circle fill="#FFFFFF" stroke="#FFFFFF" stroke-width="5.9647" stroke-linecap="round" stroke-miterlimit="10" cx="171.515" cy="196.641" r="1.546"/>
	
		<rect x="176.044" y="199.768" fill="#FFFFFF" stroke="#FFFFFF" stroke-width="5.9647" stroke-linecap="round" stroke-miterlimit="10" width="0" height="0"/>
	
		<circle fill="#FFFFFF" stroke="#FFFFFF" stroke-width="5.9647" stroke-linecap="round" stroke-miterlimit="10" cx="76.746" cy="197.982" r="1.547"/>
	
		<rect x="81.275" y="201.109" fill="#FFFFFF" stroke="#FFFFFF" stroke-width="5.9647" stroke-linecap="round" stroke-miterlimit="10" width="0" height="0"/>
	<path fill="#ED1C24" stroke="#000000" stroke-width="5.9647" stroke-linecap="round" stroke-miterlimit="10" d="M91.046,213.734
		c-5.187-5.164-1.84-11.892-9.771-21.469c4.995,2.254,6.075,0.775,10.998,3.383c-0.25-1.986,0.53-4.447,0.22-6.407
		c3.284,3.705,1.836,2.706,7.242,2.012c1.06-5.181-3.029-11.216-4.14-16.176c3.524,1.022,8.582,6.97,11.742,3.644
		c2.074-2.179-0.887-11.941-1.115-13.952c4.912,2.57,5.359,10.431,10.179,10.936c3.953,0.414,10.721-7.993,12.728-10.936
		c-0.486,5.028-2.269,10.167-1.431,15.302c7.043,1.112,10.454-3.144,16.195-4.228c-2.728,4.409-5.406,8.782-6.519,13.92
		c3.929,0.197,7.61-1.177,11.586-0.502c-2.368,3.832-4.567,7.733-6.431,11.665c8.107-0.942,13.129-7.319,19.944-10.971
		c1.628,8.443-6.442,14.987-9.464,22.161c6.792,2.382,17.87-1.299,22.999,4.453c-4.366-0.405-9.499,1.192-11.98,4.642
		c2.634,3.102,7.7,5.521,11.961,6.073c-2.142,3.515-5.735,5.624-8.851,8.059c1.975,2.935,5.904,4.779,9.557,4.602
		c-0.815,5.027-5.564,7.523-7.262,11.667c4.73,1.009,12.85,0.912,17.552-0.539c-1.753,3.639-3.129,7.523-5.78,10.546
		c2.687,1.506,13.656,0.871,12.58,5.633c-0.592,2.63-4.664,1.53-5.81,3.151c-3.497,4.948,0.753,8.767,4.213,14.035
		c-1.353-0.309-3.436,0.469-4.847,0.242c-0.414,4.162,1.726,7.541,2.062,11.591c-8.696-3.959-15.292-7.922-14.344,3.692
		c-4.318-0.532-9.879-4.625-12.639-7.88c-3.229,1.605-3.461,5.602-4.96,8.662c-8.247-9.311-11.929-12.366-17.207,0.746
		c-1.835-3.769-9.801-17.285-12.055-5.795c-2.758-3.753-12.099-9.649-12.527-0.915c-0.577-3.264-3.377-4.893-6.582-4.718
		c-2.042,2.074-4.377,4.048-6.224,6.379c-7.236-6.677-13.799-2.733-20.655,2.215c0.111-2.634,0.588-5.609,1.18-7.846
		c-6.536,1.541-14.425,3.036-20.562,4.884c0.312-3.862,2.923-7.592,3.392-11.036c-4.373,1.02-14.13,3.981-13.814-3.073
		c0.115-2.531,9.406-10.301,11.426-11.967c-15.263,2.579-1.612-11.392,4.81-13.531c-0.848-0.501-2.339-2.458-3.048-2.854
		c4.166-3.172,11.211-2.039,16.442-2.332c-1.279-4.574-6.658-6.486-10.895-7.489c5.99-5.365,12.456-2.645,19.103-5.037
		c-1.801-4.024-6.549-4.426-10.233-6.599c3.97,0.274,7.705-1.006,10.815-3.297c-4.594-5.05-13.337-1.372-19.268-2.184
		c5.854-6.248,13.204-9.201,20.979-11.07"/>
	
		<ellipse stroke="#000000" stroke-width="5.9647" stroke-linecap="round" stroke-miterlimit="10" cx="120.058" cy="257.973" rx="21.307" ry="13.795"/>
	<path fill="#3C2415" stroke="#000000" stroke-width="5.9647" stroke-linecap="round" stroke-miterlimit="10" d="M125.469,241.503
		c-7.845-0.294-18.583-1.143-25.438,2.058c-6.708,3.134-9.383,11.463-3.021,16.473c4.685-3.515,8.085-10.54,14.784-4.38
		c2.47,2.269,3.516,6.981,1.471,9.524c-3.235,4.028-7.453-0.862-9.521,0.679c-7.593,5.656,12.823,11.211,17.871,11.088
		c5.592-0.136,19.38-1.952,18.601-10.159c-5.197-1.177-15.338,3.401-12.653-6.842c2.042-7.785,7.031-3.638,11.385-3.109
		c3.578,0.436,2.345,3.766,5.01,0.126c0.494-0.675,1.005-7.189,0.434-8.308C141.648,243.277,133.312,241.797,125.469,241.503z"/>
	<path fill="#ED1C24" d="M31.399,180.556c8.609-6.004,4.639,5.689,5.391,8.734c0.754,3.057,1.958,5.28,1.958,8.565
		c-0.003,3.583-1.62,4.794-2.703,7.747c-1.328,3.621,1.177,4.098,2.619,7.622c1.112,2.714,1.188,6.405,0.466,9.244
		c-0.685,2.697-2.457,4.892-0.868,7.823c1.696,3.125,4.794,4.095,4.957,8.202c0.084,2.088-1.445,3.979-1.426,5.691
		c0.021,1.734,1.781,3.338,2.462,4.829c1.729,3.78,1.615,7.314,1.191,11.462c-0.685,6.718,6.072,16.865,0.492,23.345"/>
	<path fill="#ED1C24" d="M208.104,176.455c-2.984-0.483-5.181-3.352-6.69,0.394c-1.017,2.525,1.156,4.768,2.133,7.062
		c1.335,3.137,0.999,4.648,0.185,7.913c-0.344,1.381-1.427,2.779-0.865,4.389c0.757,2.174,2.444,1.749,3.475,3.728
		c1.638,3.146-1.018,4.911-1.883,7.832c-0.768,2.589-0.885,6.603-0.373,9.317c0.575,3.048,2.518,5.225,0.763,8.222
		c-1.265,2.161-4.478,3.525-5.784,5.844c-2.872,5.092,2.668,6.536,1.955,10.932c-0.772,4.749-3.441,5.19-1.202,10.438
		c2.007,4.702-0.547,5.254-1.425,10.045c-0.855,4.661,2.322,8.825,5.983,11.557"/>
	<path fill="#ED1C24" stroke="#000000" stroke-width="5.9647" stroke-linecap="round" stroke-miterlimit="10" d="M208.104,176.455
		c4.591,2.712,10.581,5.312,15.647,7.176c2.847,1.047,7.268,1.369,9.375,3.262c-4.089,3.687-16.06,2.234-21.626,3.039
		c-0.082,4.102,11.411,9.074,14.768,11.5c2.216,1.601,5.409,3.696,5.889,6.626c-5.503,2.289-13.422,1.156-18.111-2.393
		c0.361,7.696,14.303,11.883,17.849,17.371c-4.928,3.048-13.537,1.623-19.259,1.94c-0.375,6.696,14.228,10.587,19.298,13.819
		c-2.918,4.9-16.382,4.972-21.604,4.225c2.797,2.492,6.115,4.085,8.631,6.896c2.097,2.341,3.586,4.179,6.282,5.944
		c2.137,1.401,6.939,2.417,4.427,4.957c-2.506,2.534-18.475,1.414-21.897-0.351c0.703,2.78,4.031,4.851,5.85,7.044
		c3.252,3.923,5.963,8.699,9.996,11.886c-3.716,3.629-14.854-4.418-19.241-5.269"/>
	<path fill="#ED1C24" stroke="#000000" stroke-width="5.9647" stroke-linecap="round" stroke-miterlimit="10" d="M31.399,180.556
		c-5.697,5.219-14.583,6.201-21.576,8.266c2.251,4.636,13.469,4.781,18.21,3.795c-1.33,4.417-5.902,9.898-8.964,13.318
		c-2.949,3.294-7.16,7.267-11.813,7.79c6.918,1.723,14.211,0.441,20.674-1.385c-2.149,4.575-3.289,7.754-6.598,11.443
		c-1.997,2.224-4.626,4.474-5.867,7.045c3.409,0.204,6.404-0.175,9.716-0.597c4.366-0.556,6.598-1.38,5.199,3.338
		c-1.695,5.717-7.695,12.231-12.623,15.526c6.174,0.253,12.421-1.312,18.44-2.132c0.243,4.744-3.452,10.001-5.904,13.755
		c-0.939,1.439-6.874,5.018-7.019,6.026c-0.738,5.097,14.688-0.248,17.369-0.041c2.927,6.716-5.291,14.012-9.652,17.479
		c4.068,2.04,10.744,0.774,14.947-0.363"/>
</g>
</svg>
