<?xml version="1.0" encoding="utf-8"?>
<!-- Generator: Adobe Illustrator 15.1.0, SVG Export Plug-In . SVG Version: 6.00 Build 0)  -->
<!DOCTYPE svg PUBLIC "-//W3C//DTD SVG 1.1//EN" "http://www.w3.org/Graphics/SVG/1.1/DTD/svg11.dtd">
<svg version="1.1" id="Layer_1" xmlns="http://www.w3.org/2000/svg" xmlns:xlink="http://www.w3.org/1999/xlink" x="0px" y="0px"
	 width="612px" height="792px" viewBox="0 0 612 792" enable-background="new 0 0 612 792" xml:space="preserve">
<g>
	<path fill="#39B54A" stroke="#006838" stroke-width="4.5984" stroke-miterlimit="10" d="M397.829,583.273
		c0,24.411-18.73,44.197-41.839,44.197H278.72c-23.11,0-41.835-19.786-41.835-44.197V540.81c0-24.41,18.726-44.196,41.835-44.196
		h77.271c23.108,0,41.839,19.786,41.839,44.196V583.273z"/>
	<g>
		<path fill="#39B54A" stroke="#006838" stroke-width="4.5984" stroke-miterlimit="10" d="M360.193,500.044
			c21.456-10.741,39.463,6.269,45.603,16.605c6.125,10.329,6.825,30.052,12.456,38.181c1.406,2.047,4.118,5.397,7.438,9.402
			c9.901,11.973,9.25,37.749,9.291,43.398c0.049,7.553-3.332,69.426-13.746,69.496c-10.414,0.072-10.647-27.419-12.695-38.403
			c-2.048-10.976-7.082-19.472-9.771-30.851c-2.686-11.379,5.47-14.263,4.697-24.187c-0.769-9.934-20.635-22.3-26.06-36.042
			C371.985,533.895,338.724,510.776,360.193,500.044z"/>
		<path fill="#39B54A" stroke="#006838" stroke-width="4.5984" stroke-miterlimit="10" d="M274.521,500.044
			c-21.457-10.741-39.463,6.269-45.603,16.605c-6.125,10.329-6.826,30.052-12.457,38.181c-1.406,2.047-4.118,5.397-7.437,9.402
			c-9.902,11.973-9.25,37.749-9.292,43.398c-0.049,7.553,3.333,69.426,13.746,69.496c10.414,0.072,10.647-27.419,12.695-38.403
			c2.047-10.976,7.082-19.472,9.772-30.851c2.685-11.379-5.47-14.263-4.697-24.187c0.768-9.934,20.634-22.3,26.059-36.042
			C262.728,533.895,295.99,510.776,274.521,500.044z"/>
	</g>
	<path fill="#39B54A" stroke="#006838" stroke-width="4.5984" stroke-miterlimit="10" d="M397.829,540.81v42.464
		c0,24.411-18.73,44.197-41.839,44.197H278.72c-23.11,0-41.835-19.786-41.835-44.197V540.81"/>
	<path fill="#39B54A" stroke="#006838" stroke-width="4.5984" stroke-miterlimit="10" d="M278.72,496.613h77.271"/>
	<g>
		<path fill="#009444" stroke="#006838" stroke-width="4.5984" stroke-miterlimit="10" d="M304.626,750.209
			c-5.223-17.567-11.034-35.772-11.034-35.772l25.831-54.616l-30.842-10.005c0,0-26.364,49.092-26.818,59.098
			c-0.454,9.995,13.858,51.166,13.858,51.166"/>
		<path fill="#009444" stroke="#006838" stroke-width="4.5984" stroke-miterlimit="10" d="M330.083,750.209
			c5.223-17.567,11.034-35.772,11.034-35.772l-25.831-54.616l30.842-10.005c0,0,26.365,49.092,26.818,59.098
			c0.454,9.995-13.858,51.166-13.858,51.166"/>
	</g>
	<path fill="#009444" stroke="#006838" stroke-width="4.5984" stroke-miterlimit="10" d="M370.485,638.086
		c0,23.459-19.74,42.463-44.089,42.463h-18.08c-24.348,0-44.088-19.004-44.088-42.463"/>
	<g>
		<g>
			<path fill="#C49A6C" stroke="#3C2415" stroke-width="3.9438" stroke-miterlimit="10" d="M402.984,651.729
				c-1.23,2.119-3.938,2.847-6.062,1.626l-10.562-6.098c-2.119-1.222-2.852-3.943-1.625-6.062l12.628-21.87
				c1.222-2.119,4.293-2.981,6.542-2.389c0,0,9.714,1.526,12.301,3.018c2.586,1.5,18.366,26.216,18.366,26.216L402.984,651.729z"/>
			
				<path fill="#C49A6C" stroke="#3C2415" stroke-width="3.9438" stroke-linecap="round" stroke-linejoin="round" stroke-miterlimit="10" d="
				M454.667,676.975c-1.226,2.129-3.938,2.856-6.058,1.626l-47.296-27.303c-2.123-1.222-2.847-3.934-1.626-6.062l6.1-10.562
				c1.23-2.12,3.938-2.848,6.062-1.626l47.295,27.312c2.12,1.222,2.848,3.935,1.622,6.054L454.667,676.975z"/>
			
				<path fill="#C49A6C" stroke="#3C2415" stroke-width="3.9438" stroke-linecap="round" stroke-linejoin="round" stroke-miterlimit="10" d="
				M444.873,693.949c-1.226,2.121-3.942,2.847-6.062,1.626l-51.135-29.521c-2.124-1.23-2.852-3.952-1.625-6.072l5.357-9.277
				c1.229-2.129,3.941-2.847,6.062-1.625l51.14,29.521c2.119,1.23,2.848,3.943,1.621,6.062L444.873,693.949z"/>
			
				<path fill="#C49A6C" stroke="#3C2415" stroke-width="3.9438" stroke-linecap="round" stroke-linejoin="round" stroke-miterlimit="10" d="
				M435.074,710.915c-1.222,2.12-3.938,2.848-6.062,1.626l-48.57-28.048c-2.124-1.223-2.847-3.944-1.625-6.062l5.361-9.277
				c1.222-2.13,3.934-2.849,6.058-1.626l48.575,28.048c2.12,1.221,2.847,3.935,1.625,6.053L435.074,710.915z"/>
			
				<path fill="#C49A6C" stroke="#3C2415" stroke-width="3.9438" stroke-linecap="round" stroke-linejoin="round" stroke-miterlimit="10" d="
				M425.77,727.028c-1.221,2.119-3.934,2.847-6.058,1.626l-44.31-25.58c-2.119-1.23-2.847-3.942-1.621-6.062l4.863-8.425
				c1.23-2.129,3.943-2.856,6.062-1.626l44.305,25.579c2.125,1.222,2.852,3.934,1.626,6.062L425.77,727.028z"/>
			<path fill="#C49A6C" d="M427.019,714.526c-1.222,2.118-3.935,2.847-6.058,1.625l-13.315-7.688
				c-2.124-1.23-2.852-3.942-1.625-6.062l23.998-41.566c1.229-2.128,3.942-2.855,6.062-1.625l13.319,7.688
				c2.12,1.223,2.848,3.935,1.621,6.063L427.019,714.526z"/>
		</g>
		<g>
			<path fill="#C49A6C" stroke="#3C2415" stroke-width="3.9438" stroke-miterlimit="10" d="M231.733,651.056
				c1.227,2.119,3.939,2.847,6.059,1.626l10.562-6.099c2.124-1.222,2.855-3.943,1.625-6.063l-12.623-21.869
				c-1.226-2.119-4.297-2.981-6.542-2.389c0,0-9.713,1.527-12.304,3.018c-2.586,1.5-18.367,26.217-18.367,26.217L231.733,651.056z"
				/>
			
				<path fill="#C49A6C" stroke="#3C2415" stroke-width="3.9438" stroke-linecap="round" stroke-linejoin="round" stroke-miterlimit="10" d="
				M180.051,676.302c1.222,2.129,3.934,2.856,6.058,1.626l47.295-27.304c2.125-1.222,2.848-3.934,1.622-6.062L228.927,634
				c-1.226-2.12-3.934-2.848-6.058-1.626l-47.295,27.312c-2.125,1.221-2.852,3.935-1.621,6.053L180.051,676.302z"/>
			
				<path fill="#C49A6C" stroke="#3C2415" stroke-width="3.9438" stroke-linecap="round" stroke-linejoin="round" stroke-miterlimit="10" d="
				M189.845,693.276c1.226,2.119,3.938,2.847,6.058,1.626l51.14-29.522c2.12-1.23,2.847-3.952,1.625-6.07l-5.362-9.278
				c-1.226-2.128-3.938-2.847-6.062-1.625l-51.136,29.521c-2.124,1.23-2.852,3.941-1.621,6.062L189.845,693.276z"/>
			
				<path fill="#C49A6C" stroke="#3C2415" stroke-width="3.9438" stroke-linecap="round" stroke-linejoin="round" stroke-miterlimit="10" d="
				M199.639,710.242c1.226,2.12,3.943,2.846,6.062,1.625l48.575-28.048c2.124-1.222,2.847-3.943,1.621-6.062l-5.357-9.278
				c-1.226-2.129-3.938-2.847-6.058-1.626l-48.58,28.05c-2.12,1.221-2.846,3.934-1.621,6.053L199.639,710.242z"/>
			
				<path fill="#C49A6C" stroke="#3C2415" stroke-width="3.9438" stroke-linecap="round" stroke-linejoin="round" stroke-miterlimit="10" d="
				M208.943,726.354c1.227,2.121,3.939,2.849,6.062,1.626l44.305-25.578c2.12-1.231,2.847-3.942,1.625-6.063l-4.867-8.424
				c-1.227-2.128-3.943-2.855-6.063-1.625l-44.304,25.578c-2.12,1.221-2.848,3.935-1.626,6.062L208.943,726.354z"/>
			<path fill="#C49A6C" d="M207.695,713.853c1.226,2.119,3.938,2.847,6.062,1.626l13.314-7.688c2.124-1.23,2.852-3.943,1.621-6.062
				l-23.998-41.565c-1.226-2.128-3.938-2.856-6.062-1.626l-13.315,7.688c-2.124,1.221-2.851,3.935-1.621,6.062L207.695,713.853z"/>
		</g>
	</g>
	
		<rect x="264.229" y="624.704" fill="#8B5E3C" stroke="#603913" stroke-width="4.5984" stroke-miterlimit="10" width="106.163" height="15.542"/>
	
		<rect x="303.225" y="622.234" fill="#FFF200" stroke="#F7941E" stroke-width="4.5984" stroke-miterlimit="10" width="31.058" height="27.581"/>
	<g>
		<path fill="#8B5E3C" stroke="#603913" stroke-width="4.5984" stroke-miterlimit="10" d="M275.621,760.079l-21.528,2.013
			c-9.292,0-16.822,7.534-16.822,16.82v14.479c0,0,53.129,0,59.492,0s14.545-7.365,15.91-11.146
			c0.638-1.77-3.476-16.659-8.047-32.036L275.621,760.079z"/>
		<path fill="#8B5E3C" stroke="#603913" stroke-width="4.5984" stroke-miterlimit="10" d="M359.088,760.079l21.529,2.013
			c9.29,0,16.821,7.534,16.821,16.82v14.479c0,0-53.129,0-59.492,0s-14.546-7.365-15.91-11.146
			c-0.638-1.77,3.476-16.659,8.047-32.036L359.088,760.079z"/>
	</g>
	
		<rect x="252.809" y="509.704" fill="#39B54A" stroke="#39B54A" stroke-width="4.5984" stroke-miterlimit="10" width="127.84" height="44.56"/>
	<polyline fill="#C2B59B" stroke="#006838" stroke-width="4.5984" stroke-miterlimit="10" points="353.843,505.805 317.356,575.814 
		280.871,505.805 	"/>
</g>
<g>
	
		<path fill="#8B5E3C" stroke="#000000" stroke-width="4.5921" stroke-linecap="round" stroke-linejoin="round" stroke-miterlimit="10" d="
		M201.285,179.609c-14.318,5.101-38.48-11.105-51.299-17.006c-17.819-8.2-38.748-10.226-58.089-8.209
		c-18.8,1.967-33.321,11.523-48.104,22.943c-15.369,11.869-23.551,21.213-16.22,39.778c12.295,31.138,51.734,58.36,84.284,62.716
		c18.273,2.442,39.058,4.328,55.753-4.549c15.433-8.205,24.789-17.496,36.738-30.02c6.053-6.35,11.195-13.822,14.538-22.027"/>
	
		<path fill="none" stroke="#000000" stroke-width="4.5921" stroke-linecap="round" stroke-linejoin="round" stroke-miterlimit="10" d="
		M88.013,186.502c4.632,7.325,8.73,20.514,16.112,25.287c7.567,4.895,23.978,5.357,32.888,5.344
		c19.756-0.027,42.032-5.528,57.385-18.385"/>
	<path fill="#C2B59B" stroke="#000000" stroke-width="5.7401" stroke-linecap="round" stroke-miterlimit="10" d="M245.304,130.63
		c7.883,6.282,0.696,30.415-5.375,36.01c-10.508,9.682-22.764,2.407-33.081-4.458c-23.891-15.911-45.995-32.606-54.321-61.401
		c-4.392-15.182-5.658-29.517-3.388-45.225c1.589-10.997,0.081-21.102-0.519-32.633c-0.391-7.536-4.026-15.498-9.468-21.748
		c-0.998-1.918,2.312-1.814,5.646,0c7.541,4.113,18.798,14.303,23.206,23.836c5.449,11.792,6.511,23.895,7.822,36.743
		c1.439,14.069,1.707,26.126,11.096,37.542c7.141,8.676,16.876,19.372,26.984,24.281c8.618,4.186,22.665,0.584,29.866,6.292"/>
	
		<path fill="#8B5E3C" stroke="#000000" stroke-width="5.7401" stroke-linecap="round" stroke-linejoin="round" stroke-miterlimit="10" d="
		M227.306,135.22c-4.589,6.507-13.616,23.463-22.157,33.662c-9.994,11.931-12.282,20.571-12.282,35.983
		c0,12.525,1.199,25.606-3.64,36.927c-2.568,6.018-2.885,43.209-3.994,48.813c-1.089,5.479-4.684,9.165-4.612,15.291
		c0.081,7.064,3.965,11.784,8.611,16.629c5.91,6.166,7.901,11.167,8.227,20.104c0.492,13.491-2.463,26.949-2.294,40.583
		c0.159,13.162,4.122,25.507,6.08,38.292c2.117,13.786,3.898,25.516-2.046,38.947c-5.151,11.652-9.044,22.561-13.793,34.483
		c-4.576,11.486-10.334,22.448-14.522,33.675c-2.279,6.111-4.847,12.516-1.72,19.193c4.048,8.631,11.957,6.161,19.954,9.125
		c7.578,2.815,11.117,7.514,15.956,12.991c5.728,6.485,14.11,8.856,22.217,11.479c8.216,2.658,12.179-0.579,19.914-0.014
		c6.406,0.468,12.242,5.555,19.135,6.156c13.445,1.159,25.202-3.286,37.486-8.42c7.433-3.103,12.644-3.476,20.682-3.825
		c5.469-0.233,15.699,0.399,20.666-2.466c11.949-6.902,5.542-25.147,16.836-33.352c5.335-3.876,12.632-6.287,18.325-10.082
		c6.817-4.535,12.637-9.736,19.364-14.563c14.882-10.679,23.908-19.786,31.802-36.733c6.656-14.28,12.8-28.825,16.437-44.201
		c8.043-34.003-2.811-69.6,5.168-103.567c8.38-35.674,22.463-76.75,6.907-113.173c-6.533-15.299-14.128-28.035-18.236-44.448
		c-3.225-12.888-6.358-28.341-17.405-37.376c-6.593-5.394-21.978-7.98-30.833-12.564c-5.048-2.614-10.311-4.581-15.574-6.813
		c-8.299-3.516-16.03-8.208-24.204-11.554c-18.358-7.527-39.113-5.354-58.396-2.816c-15.751,2.074-25.417,4.226-38.993,12.035
		C245.863,119.664,231.898,128.717,227.306,135.22z"/>
	
		<path fill="#FFFFFF" stroke="#000000" stroke-width="4.5921" stroke-linecap="round" stroke-linejoin="round" stroke-miterlimit="10" d="
		M378.344,310.395c14.114,3.445,35.302,0.301,44.121-12.928c4.858-7.279,5.218-17.23,3.31-25.525
		c-1.248-5.438-8.708-22.089-17.078-14.271l-21.954,29.338"/>
	
		<path fill="#FFFFFF" stroke="#000000" stroke-width="5.7401" stroke-linecap="round" stroke-linejoin="round" stroke-miterlimit="10" d="
		M182.918,261.497c-6.229,4.198-9.978,20.886-8.256,27.559c3.663,14.208,11.572,17.604,21.641,20.011
		c2.761,0.655,9.891-0.79,12.838-0.005c1.77,0.468-7.229-36.347-13.976-46.801"/>
	
		<path fill="#C49A6C" stroke="#000000" stroke-width="5.7401" stroke-linecap="round" stroke-linejoin="round" stroke-miterlimit="10" d="
		M396.446,142.867c10.517,2.43,15.079-14.559,12.991-22.216c-3.283-12.043-11.793-13.296-22.825-13.876
		c-1.726-7.706-4.814-13.431-12.341-17.312c-3.449-1.778-6.31-1.976-10.006-2.429c-2.568-0.315-8.572,1.307-10.674,0.61
		c-3.484-1.158-5.017-6.498-7.831-9.066c-2.848-2.591-7.531-4.617-11.174-5.569c-8.02-2.088-19.036-0.3-21.622,9.166
		c-6.251-3.462-13.189-3.615-19.82-1.109c-7.061,2.676-9.25,8.583-15.964,9.202c-12.234,1.127-25.333-0.17-25.65,15.749
		c-13.061,0.13-32.622,19.804-14.505,28.43c-8.161,6.066,4.118,11.617,9.417,12.246c7.14,0.845,16.986-0.341,23.17-3.538
		c4.271,4.441,0.828,8.711-3.022,11.994c2.704-0.148,5.297,0.13,7.902,0.844c1.989,10.243-8.485,24.088-15.74,29.58
		c7.344,0.548,14.262-1.392,21.306-1.262c-0.667,9.169-4.962,14.481-9.675,21.963c16.099-0.189,22.39-16.813,25.907-29.558
		c14.639,13.832,28.85,15.919,46.562,7.271c-10.639-1.325-15.27-15.093-21.174-22.062c5.452,1.482,10.157,2.717,14.137-2.223
		c-13.019-8.694-14.662-16.359-14.325-31.946c10.526,5.676,17.567,14.465,31.295,10.405c-1.513-2.107-2.95-4.698-3.386-7.311
		c9.094,3.543,14.725,9.502,24.757,11.478c7.943,1.567,15.358,1.536,23.06-0.225"/>
	
		<path fill="#8B5E3C" stroke="#000000" stroke-width="4.5921" stroke-linecap="round" stroke-linejoin="round" stroke-miterlimit="10" d="
		M455.381,208.695c-1.675-15.78,18.102-39.607,27.51-51.278c10.301-12.78,28.696-15.421,43.497-10.544
		c29.046,9.569,61.678,30.416,61.396,63.947c-0.229,27.343-32.897,50.601-53.592,62.739c-12.582,7.383-22.713,13.153-37.596,10.908
		c-13.489-2.034-21.954-11.02-33.562-16.072"/>
	<g>
		<path fill="#27AAE1" stroke="#2E3192" stroke-width="2.1976" stroke-miterlimit="10" d="M418.72,287.143
			c0,8.9-7.217,16.121-16.122,16.121c-8.909,0-16.126-7.221-16.126-16.121c0-8.91,7.217-16.126,16.126-16.126
			C411.503,271.017,418.72,278.233,418.72,287.143z"/>
		<circle stroke="#000000" stroke-width="2.1976" stroke-miterlimit="10" cx="402.596" cy="287.143" r="7.727"/>
		<path fill="#FFFFFF" d="M419.15,279.414c0,3.462-2.798,6.264-6.26,6.264c-3.457,0-6.265-2.802-6.265-6.264
			c0-3.458,2.808-6.265,6.265-6.265C416.353,273.149,419.15,275.957,419.15,279.414z"/>
	</g>
	<g>
		<path fill="#27AAE1" stroke="#2E3192" stroke-width="1.6562" stroke-miterlimit="10" d="M202.987,287.183
			c0,6.714-5.438,12.152-12.152,12.152c-6.711,0-12.151-5.438-12.151-12.152c0-6.709,5.44-12.146,12.151-12.146
			C197.548,275.036,202.987,280.474,202.987,287.183z"/>
		<path stroke="#000000" stroke-width="1.6562" stroke-miterlimit="10" d="M196.659,287.183c0,3.22-2.609,5.824-5.822,5.824
			c-3.215,0-5.825-2.604-5.825-5.824c0-3.215,2.61-5.824,5.825-5.824C194.05,281.359,196.659,283.968,196.659,287.183z"/>
		<path fill="#FFFFFF" d="M203.314,281.359c0,2.609-2.112,4.724-4.72,4.724c-2.609,0-4.722-2.115-4.722-4.724
			c0-2.605,2.113-4.716,4.722-4.716C201.202,276.643,203.314,278.754,203.314,281.359z"/>
	</g>
	<path fill="#FFFFFF" d="M410.659,280.874c0,2.231-1.796,4.037-4.028,4.037c-2.228,0-4.033-1.806-4.033-4.037
		c0-2.228,1.806-4.028,4.033-4.028C408.863,276.846,410.659,278.646,410.659,280.874z"/>
	
		<path fill="#8B5E3C" stroke="#000000" stroke-width="4.5921" stroke-linecap="round" stroke-linejoin="round" stroke-miterlimit="10" d="
		M404.103,225.526c13.091,5.142,18.73,10.297,23.554,23.127c3.049,8.092,2.312,8.847-5.955,11.33
		c-6.031,1.822-11.455,4.167-16.831,7.463c-9.521,5.851-17.086,16.018-21.43,26.194c-4.229,9.916-5.487,25.974-13.777,33.671"/>
	
		<path fill="#8B5E3C" stroke="#000000" stroke-width="5.7401" stroke-linecap="round" stroke-linejoin="round" stroke-miterlimit="10" d="
		M200.52,236.237c-9.188,1.733-15.186,6.453-20.579,14.015c-1.587,2.228-6.513,7.692-4.991,10.733
		c0.627,1.248,10.684,3.807,12.942,5.11c12.221,7.055,11.897,15.448,16.317,25.561c3.264,7.476,8.125,25.184,16.213,29.543"/>
	<path fill="#C2B59B" stroke="#000000" stroke-width="5.7401" stroke-linecap="round" stroke-miterlimit="10" d="M417.111,143.644
		c-7.885,6.278-0.7,30.411,5.376,36.006c10.513,9.682,22.763,2.407,33.082-4.459c23.886-15.91,45.993-32.606,54.319-61.396
		c4.392-15.183,5.657-29.521,3.386-45.225c-1.59-10.998-0.077-21.106,0.521-32.638c0.391-7.536,4.024-15.498,9.467-21.744
		c0.996-1.921-2.309-1.819-5.64,0c-7.546,4.109-18.804,14.303-23.208,23.836c-5.452,11.792-6.512,23.89-7.827,36.738
		c-1.437,14.074-1.702,26.126-11.097,37.542c-7.14,8.676-16.876,19.373-26.979,24.281c-8.623,4.186-22.669,0.589-29.867,6.292"/>
	<path fill="#C49A6C" stroke="#000000" stroke-width="5.7401" stroke-linecap="round" stroke-miterlimit="10" d="M278.69,464.32
		c0,0-19.352-1.652-26.784-2.295c-6.473-0.565-12.731-0.888-19.137-1.53c-14.192-1.411-25.965-3.719-35.396,7.692
		c-13.676,16.552-29.514,47.304-29.661,68.841c-0.141,20.904,24.528,20.19,38.458,31.166c11.381,8.967,20.899,13.206,35.882,12.457
		c14.57-0.728,28.992,8.415,43.524,6.165c6.857-1.06,10.786-6.013,16.799-8.667c5.832-2.573,12.601-0.804,18.368-0.516
		c6.65,0.331,15.24,0.561,21.42-1.55c6.897-2.357,6.781-6.327,7.706-13.032c1.76-12.785-1.616-24.649-4.765-36.738
		c-6.193-23.817-12.085-53.973-39.628-59.096C299.816,466.162,278.69,464.32,278.69,464.32z"/>
	<path fill="#3C2415" stroke="#000000" stroke-width="5.7401" stroke-linecap="round" stroke-miterlimit="10" d="M271.038,489.576
		c-9.117,0.396-49.411,3.413-71.363-7.383c-9.269,8.137-6.062,28.96-5.938,40.295c0.131,11.829,0.397,26.387,9.144,35.207
		c14.258,14.369,40.676,13.664,59.182,15.138c18.604,1.477,26.25-1.037,37.46-14.972c10.911-13.558,24.138-27.573,22.791-46.093
		c-0.449-6.196-4.666-19.885-12.991-20.504c-5.337-0.396-9.559,5.361-16.088,5.205C286.277,496.289,280.152,489.181,271.038,489.576
		z"/>
	
		<path fill="none" stroke="#000000" stroke-width="5.7401" stroke-linecap="round" stroke-linejoin="round" stroke-miterlimit="10" d="
		M286.344,540.846c-13.353-3.014,2.03-15.465,6.702-17.773c6.898-3.414,16.238-5.537,17.808-14.37
		c0.633-3.575-3.175-8.438,1.473-10.921c3.835-2.049,8.316,2.487,9.839,5.729c3.521,7.49-1.481,18.717-4.441,24.326"/>
	
		<path fill="none" stroke="#000000" stroke-width="5.7401" stroke-linecap="round" stroke-linejoin="round" stroke-miterlimit="10" d="
		M199.861,483.446c-1.859,5.978-5.688,11.986-1.718,17.639c4.102,5.848,12.585,7.999,17.195,14.46
		c2.979,4.177,9.605,11.86,6.731,17.667c-3.184,6.435-13.319,1.307-14.556-4.612"/>
	
		<path fill="none" stroke="#000000" stroke-width="4.5921" stroke-linecap="round" stroke-linejoin="round" stroke-miterlimit="10" d="
		M544.161,184.972c-26.944,19.386-55.85,38.098-90.315,32.912"/>
</g>
</svg>
