<?xml version="1.0" encoding="utf-8"?>
<!-- Generator: Adobe Illustrator 15.1.0, SVG Export Plug-In . SVG Version: 6.00 Build 0)  -->
<!DOCTYPE svg PUBLIC "-//W3C//DTD SVG 1.1//EN" "http://www.w3.org/Graphics/SVG/1.1/DTD/svg11.dtd">
<svg version="1.1" xmlns="http://www.w3.org/2000/svg" xmlns:xlink="http://www.w3.org/1999/xlink" x="0px" y="0px" width="612px"
	 height="792px" viewBox="0 0 612 792" enable-background="new 0 0 612 792" xml:space="preserve">
<g id="Layer_2">
	<path fill="#B8747B" stroke="#000000" stroke-width="4.8962" stroke-miterlimit="10" d="M455.467,462.585
		c-1.26-26.232,33.89-38.923,50.241-52.925c11.02-9.438,16.88-23.95,14.246-38.473c-1.104-6.072-20.807-23.486-13.73-29.255
		c30.943,4.568,39.907,45.452,22.679,68.04c-20.331,26.661-55.134,44.163-74.251,70.566"/>
	<path fill="#77484E" stroke="#000000" stroke-width="4.8962" stroke-miterlimit="10" d="M559.104,512.362
		c-21.741-23.343-100.488-23.106-101.33-56.695c-37.71,59.394,85.796,45.934,91.537,85.257"/>
	<path fill="#B8747B" stroke="#000000" stroke-width="4.8962" stroke-miterlimit="10" d="M359.99,595.599
		c14.365-34.678,70.995-48.176,103.523-46.962c29.85,1.113,95.2,9.52,94.789-37.097c42.923,43.173-22.582,69.56-57.565,68.861
		c-46.741-0.933-111.742,5.976-140.747,49.47"/>
	
		<path fill="#3C2415" stroke="#000000" stroke-width="4.8962" stroke-linecap="round" stroke-linejoin="round" stroke-miterlimit="10" d="
		M335.511,229.2c10.36,14.744,21.606,27.657,32.862,41.436c7.939,9.722,11.4,21.981,15.056,33.639
		c9.005,28.708,17.115,59.077,19.812,89.806c1.425,16.244,2.738,31.501,6.767,47.343c3.367,13.236,1.395,29.229,1.395,43.195
		c0,37.095,1.63,73.058,1.63,109.938c0,34.572,3.613,71.69-13.913,102.453c-9.059,15.899-16.437,30.517-33.438,38.946
		c-25.051,12.424-49.517,16.967-76.708,19.604c-36.25,3.517-78.353-0.268-114.237-9.199c-19.474-4.848-31.258-20.216-47.012-30.884
		c2.884-15.398,0.394-32.626,1.327-48.282c0.558-9.353,0.842-18.972,1.651-28.169c1.791-20.351,6.138-40.065,8.099-60.404
		c3.698-38.343,3.307-77.259,3.307-116.058c0-27.58-3.318-55.896-8.342-82.398c-5.763-30.407-6.616-62.719,0.998-92.216
		c2.856-11.062,6.39-26.825,8.977-37.538c3.198-13.241,15.544-13.763,25.437-21.236c22.484-16.984,57.292-14.242,84.787-13.216
		c18.805,0.702,35.986,12.194,54.616,10.79"/>
	
		<path fill="#3C2415" stroke="#000000" stroke-width="4.8962" stroke-linecap="round" stroke-linejoin="round" stroke-miterlimit="10" d="
		M382.023,692.707c4.024,7.621,9.531,12.453,11.224,21.174c1.352,6.954,2.725,13.642,3.646,20.443
		c2.094,15.463-0.385,26.725-17.318,29.42c-17.198,2.736-37.251,5.607-53.93-0.636c-15.88-5.943-15.432-28.512-15.432-43.473"/>
	
		<path fill="#3C2415" stroke="#000000" stroke-width="4.8962" stroke-linecap="round" stroke-linejoin="round" stroke-miterlimit="10" d="
		M131.5,686.177c-16.499,8.938-34.831,15.294-49.778,26.889c-9.666,7.501-14.773,26.125-6.707,36.131
		c8.06,9.995,33.007,8.561,45.696,7.977c15.232-0.7,31.859-8.88,42.554-19.769c5.24-5.338,8.445-12.643,13.117-17.769"/>
	
		<path fill="#E3C568" stroke="#000000" stroke-width="4.8962" stroke-linecap="round" stroke-linejoin="round" stroke-miterlimit="10" d="
		M369.813,734.095c20.824-3.759,19.828,46.151,11.266,56.02c-3.667-3.677-2.757-8.701-3.921-13.585
		c-1.136-4.757-3.688-8.033-5.918-12.018c-3.982-7.114-7.005-18.977-1.427-26.335"/>
	
		<path fill="#E3C568" stroke="#000000" stroke-width="5.5311" stroke-linecap="round" stroke-linejoin="round" stroke-miterlimit="10" d="
		M357.111,738.556c-19.997,2.002-12.896,41.952-0.137,46.896c0.365-7.368-1.072-16.144,1.058-22.926
		c1.673-5.328,9.979-15.453,0.923-19.36"/>
	
		<path fill="#E3C568" stroke="#000000" stroke-width="4.8962" stroke-linecap="round" stroke-linejoin="round" stroke-miterlimit="10" d="
		M337.142,736.773c-10.193,10.849-17.254,36.237-5.488,48.678c4.288-4.874,3.465-16.248,5.467-22.606
		c2.109-6.711,6.08-13.598,3.284-21.176"/>
	
		<path fill="#E3C568" stroke="#000000" stroke-width="4.8962" stroke-linecap="round" stroke-linejoin="round" stroke-miterlimit="10" d="
		M130.684,738.402c-9.999,10.327-8.813,29.449,0.816,39.268c3.659-3.819,3.969-14.968,5.917-20.274
		c1.667-4.54,7.671-17.588-1.837-18.175"/>
	
		<path fill="#E3C568" stroke="#000000" stroke-width="4.8962" stroke-linecap="round" stroke-linejoin="round" stroke-miterlimit="10" d="
		M73.562,732.691c-7.655,5.906-11.691,17.653-8.021,26.792c0.809,0.296,2.22,0.752,2.959,0.871
		c-0.368-6.386,18.713-30.128,5.877-28.479"/>
	
		<path fill="#E3C568" stroke="#000000" stroke-width="4.8962" stroke-linecap="round" stroke-linejoin="round" stroke-miterlimit="10" d="
		M390.999,735.141c14.988,2.875,18.973,34.897,9.162,44.594c-1.984-6.043-5.499-10.525-8.956-16.238
		c-4.328-7.152-3.546-13.57-1.837-21.827"/>
	
		<path fill="#E3C568" stroke="#000000" stroke-width="4.8962" stroke-linecap="round" stroke-linejoin="round" stroke-miterlimit="10" d="
		M86.211,721.268c-8.878,2.552-13.256,16.794-12.42,24.479c0.467,4.29,4.425,25.556,11.583,25.356
		c4.186-0.115,4.937-20.953,7.141-25.358c4.438-8.874,8.885-17.753-3.04-22.847"/>
	
		<path fill="#E3C568" stroke="#000000" stroke-width="4.8962" stroke-linecap="round" stroke-linejoin="round" stroke-miterlimit="10" d="
		M108.651,724.123c-20.904,7.934-16.452,45.896-0.205,56.996c1.684-3.388,1.047-8.612,1.655-12.295
		c0.864-5.229,2.896-9.521,4.896-14.526c3.718-9.297,4.957-17.144-2.267-25.277"/>
</g>
<g id="Layer_3">
	
		<path fill="#E3C568" stroke="#000000" stroke-width="4.8962" stroke-linecap="round" stroke-linejoin="round" stroke-miterlimit="10" d="
		M134.765,196.56c10.701-1.728,12.751-17.7,20.28-18.643c-0.569,8.089,0.018,14.35-4.141,21.707
		c-3.869,6.846-12.007,13.017-19.403,14.889"/>
	
		<path fill="#3C2415" stroke="#000000" stroke-width="4.8962" stroke-linecap="round" stroke-linejoin="round" stroke-miterlimit="10" d="
		M358.359,292.853c6.908,2.81,14.369-0.126,21.259,3.877c5.807,3.375,7.7,8.734,10.345,14.253
		c5.632,11.765,10.685,22.607,16.542,34.095c16.58,32.513,33.46,63.335,29.336,101.147c-3.151,28.898-38.442,51.224-66.058,38.396"
		/>
	
		<path fill="#3C2415" stroke="#000000" stroke-width="4.8962" stroke-linecap="round" stroke-linejoin="round" stroke-miterlimit="10" d="
		M364.07,465.854c-4.611-11.004-15.625-19.763-17.771-31.826c-2.377-13.379,2.015-27.332-3.673-39.803
		c-5.547-12.166-15.014-19.254-12.014-33.641c1.604-7.677,5.723-12.103,14.486-8.002c4.086,1.912,9.902,8.089,12.262,12.083
		c2.563,4.338,2.719,10.501,5.261,14.688c3.946,6.506,7.57,5.597,13.736,8.115c10.466,4.277,15.744,14.183,20.354,24.527
		c4.608,10.351,0.288,23.906-0.815,35.089c-1.846,18.711-9.076,19.53-27.744,19.584"/>
	
		<path fill="#3C2415" stroke="#000000" stroke-width="4.8962" stroke-linecap="round" stroke-linejoin="round" stroke-miterlimit="10" d="
		M377.128,378.536c17.124,0.234,25.921,4.979,25.931,22.849c0.006,7.371,1.139,10.64,3.268,17.277
		c3.028,9.436-0.81,11.91-2.923,20.303c-1.727,6.854,3.102,11.057,1.695,17.952c-0.933,4.559-5.443,11.617-9.246,14.484
		c-8.036,6.064-39.652,9.112-36.874-6.55c2.123-11.982,24.271-4.688,27.24-14.55c-8.391-3.418-12.592-13.205-9.11-21.987
		c3.036-7.662,14.054-8.627,11.262-17.934c-2.233-7.456-11.522-8.769-15.957-14.116c-3.909-4.714-7.164-18.768,3.899-16.097"/>
	
		<path fill="#E3C568" stroke="#000000" stroke-width="4.8962" stroke-linecap="round" stroke-linejoin="round" stroke-miterlimit="10" d="
		M374.679,381.8c-8.776,3.258-28.429-0.469-31.694,12.075c7.888,4.352,18.611,0.591,26.758,0.124
		c4.945-0.285,20.536-3.41,11.466-11.383"/>
	
		<path fill="#E3C568" stroke="#000000" stroke-width="4.8962" stroke-linecap="round" stroke-linejoin="round" stroke-miterlimit="10" d="
		M351.015,419.339c10.629,2.175,47.702-4.168,35.724,16.935c-7.33,12.917-33.991-4.355-36.539-15.304"/>
	
		<path fill="#E3C568" stroke="#000000" stroke-width="4.8962" stroke-linecap="round" stroke-linejoin="round" stroke-miterlimit="10" d="
		M347.751,447.9c6.511,2.855,10.312,6.259,17.892,8.118c6.513,1.598,15.222,8.751,8.461,16.381
		c-6.23,7.031-18.062-0.152-22.272-5.732c-4.064-5.384-4.604-11.736-6.529-17.951"/>
	
		<path fill="#3C2415" stroke="#000000" stroke-width="4.8962" stroke-linecap="round" stroke-linejoin="round" stroke-miterlimit="10" d="
		M181.279,241.441c-11.079-18.105-27.853-2.887-42.434-0.182c-6.823,1.266-14.938,1.636-22.231,0.998
		c-10.215-0.894-13.567-3.163-14.491-13.057c-0.718-7.688-0.132-17.576-4.856-24.028c-8.178-11.165-23.577-12.484-35.868-9.63
		c-15.989,3.713-21.482,15.942-27.619,29.781c-6.673,15.048-1.833,23.945-1.835,39.783c-0.002,13.824-2.228,26.898,5.531,39.37
		c11.831,19.019,36.561,12.054,54.92,19.164c15.076,5.839,26.483,21.886,33.575,35.11c3.053,5.693,3.079,12.965,6.465,18.129
		c4.326,6.596,16.772,15.847,21.916,19.608"/>
	
		<path fill="#3C2415" stroke="#000000" stroke-width="4.8962" stroke-linecap="round" stroke-linejoin="round" stroke-miterlimit="10" d="
		M62.138,154.126c5.957,19.678,41.422,48.859,57.83,47.611c8.386-0.638,21.395-13.282,23.5-2.637
		c1.827,9.243-8.55,16.253-18.807,18.892c-7.686,1.978-12.176,6.829-21.087,11.844c-5.492,3.09-10.195,7.747-16.139,10.177
		c-7.101,2.904-14.564,3.579-22.098,3.874c-11.764,0.461-17.647-5.26-27.699-8.791c-12.571-4.417-33.786-0.112-35.884-18.138
		c-1.597-13.72,12.042-19.979,14.686-32.638c2.359-11.293,2.557-15.9,15.363-18.074c2.232-7.022,0.807-16.258,7.467-20.48
		c8.939-5.667,22.681,1.37,23.684,10.809"/>
	
		<path fill="#E3C568" stroke="#000000" stroke-width="4.8962" stroke-linecap="round" stroke-linejoin="round" stroke-miterlimit="10" d="
		M34.393,169.63c-6.402,3.759-10.155,11.525-6.344,18.724c4.92,9.293,18.903,8.534,27.519,9.021
		c2.409,0.137,15.022,1.082,16.421-1.391c2.817-4.98-10.542-10.079-14.699-12.662c-6.759-4.201-12.205-10.95-20.449-11.243"/>
	
		<path fill="#E3C568" stroke="#000000" stroke-width="4.8962" stroke-linecap="round" stroke-linejoin="round" stroke-miterlimit="10" d="
		M19.704,213.697c-7.98,3.597-10.805,11.942-5.094,18.112c6.187,6.685,23.786,7.035,32.039,4.755
		c13.945-3.852-1.765-8.093-8.812-11.667c-6.065-3.076-11.256-8.476-17.318-11.201"/>
	
		<path fill="#E3C568" stroke="#000000" stroke-width="4.8962" stroke-linecap="round" stroke-linejoin="round" stroke-miterlimit="10" d="
		M49.082,159.022c-3.488-3.449-3.805-11.37-0.017-14.07c4.465-3.183,13.088,0.819,17.172,2.668
		c8.675,3.928,18.423,10.364,20.258,20.151c-3.288,3.941-9.946-2.033-13.996-3.648c-6.235-2.488-14.11-2.259-19.338-4.286"/>
</g>
<g id="Layer_5">
	
		<path fill="#3C2415" stroke="#000000" stroke-width="4.8962" stroke-linecap="round" stroke-linejoin="round" stroke-miterlimit="10" d="
		M324.087,91.698c30.337,1.946,46.479-37.773,72.456-46.974c28.979-10.263,43.985,37.116,45.082,56.705
		c0.457,8.161,0.044,17.152-1.335,26.241c-0.385,2.535-21.374,4.175-21.912,6.71c-0.538,2.535,19.378,5.966,18.684,8.469
		c-3.987,14.386-10.593,27.967-20.206,37.708c-10.011,10.142-59.782,17.577-59.721,35.587"/>
	
		<path fill="none" stroke="#000000" stroke-width="4.8962" stroke-linecap="round" stroke-linejoin="round" stroke-miterlimit="10" d="
		M404.467,54.566c-5.685,6.422-11.689,10.903-16.413,18.361c-6.53,10.315-8.884,22.552-8.886,34.702
		c0,9.79-0.355,19.385,1.542,28.968c2.5,12.624,8.449,21.7,16.819,32.214"/>
	
		<path fill="#3C2415" stroke="#000000" stroke-width="4.8962" stroke-linecap="round" stroke-linejoin="round" stroke-miterlimit="10" d="
		M276.757,81.904c-16.276-20.204-25.854-41.13-40.373-62.406c-21.519-31.531-48.822-19.909-58.877,13.465
		c-12.746,42.298-48.296,122.976,28.254,121.568"/>
	
		<path fill="none" stroke="#000000" stroke-width="4.8962" stroke-linecap="round" stroke-linejoin="round" stroke-miterlimit="10" d="
		M209.434,24.781c9.129,9.414,15.435,18.262,17.862,31.594c2.121,11.659,2.897,23.252,0.906,34.913"/>
</g>
<g id="Layer_4">
	
		<path fill="#3C2415" stroke="#000000" stroke-width="4.8962" stroke-linecap="round" stroke-linejoin="round" stroke-miterlimit="10" d="
		M311.846,83.129c-15.144-4.54-23.536-5.759-39.151-6.532c-14.989-0.741-28.613,1.896-43.316,4.107
		c-18.582,2.794-19.599,11.672-26.679,26.271c-6.242,12.873-12.973,24.974-15.89,38.988c-2.982,14.334-4.797,29.806-5.53,44.883
		c-0.631,12.956-6.009,27.591,1.814,39.007c23.545,34.361,79.807,33.738,116.551,36.865c17.659,1.503,28.685-5.895,42.437-16.097
		c10.466-7.767,23.506-14.688,27.744-27.951c4.848-15.163,8.124-31.634,8.934-47.925c0.938-18.851-3.782-34.218-12.831-50.858
		c-5.238-9.631-15.688-18.921-23.686-26.292C333.436,89.477,321.85,88.837,311.846,83.129z"/>
	
		<circle fill="#BE1E2D" stroke="#000000" stroke-width="4.8962" stroke-linecap="round" stroke-linejoin="round" stroke-miterlimit="10" cx="339.137" cy="140.865" r="13.519"/>
	
		<circle fill="#BE1E2D" stroke="#000000" stroke-width="4.8962" stroke-linecap="round" stroke-linejoin="round" stroke-miterlimit="10" cx="219.119" cy="112.994" r="11.66"/>
	
		<path fill="#3C2415" stroke="#000000" stroke-width="4.8962" stroke-linecap="round" stroke-linejoin="round" stroke-miterlimit="10" d="
		M186.176,225.934c0,23.06,2.352,56.448,19.788,73.44c12.194,11.885,32.975,11.402,48.756,11.428
		c15.734,0.026,21.953-4.247,31.214-16.162c12.155-15.636,41.861-27.092,42.232-49.937"/>
	
		<path fill="#410000" stroke="#000000" stroke-width="4.8962" stroke-linecap="round" stroke-linejoin="round" stroke-miterlimit="10" d="
		M208.208,187.579c13.097-3.9,30.685-0.164,43.208,1.677c13.95,2.052,27.802,2.758,40.66,9.178
		c14.477,7.227,21.579,13.373,19.952,29.947c-1.391,14.154-6.11,24.322-16.299,34.495c-7.312,7.301-15.763,16.757-24.664,22.017
		c-10.922,6.452-22.954,0.825-34.971-1.248c-8.502-1.466-17.562-3.283-24.006-9.364c-9.802-9.251-9.606-22.597-9.59-34.476
		c0.017-12.744-7.48-22.41-4.081-34.273C200.167,199.423,201.384,189.243,208.208,187.579z"/>
	
		<path fill="#3C2415" stroke="#000000" stroke-width="4.8962" stroke-linecap="round" stroke-linejoin="round" stroke-miterlimit="10" d="
		M349.382,115.768c9.845,2.877,14.946,22.546,3.427,26.804c-4.33-15.65-23.505-9.558-35.251-7.218"/>
	
		<path fill="#3C2415" stroke="#000000" stroke-width="4.8962" stroke-linecap="round" stroke-linejoin="round" stroke-miterlimit="10" d="
		M219.633,87.207c-3.31,1.3-13.417,4.335-13.704,9.158c-0.133,2.226,3.923,4.479,5.409,5.502c3.05,2.101,6.282,3.912,9.396,5.912
		c5.929,3.808,14.858,5.883,20.77,0.342"/>
	
		<path fill="#3C2415" stroke="#000000" stroke-width="4.8962" stroke-linecap="round" stroke-linejoin="round" stroke-miterlimit="10" d="
		M209.024,132.089c6.666-26.068,43.712-31.872,65.325-23.419c21.507,8.411,31.624,25.352,30.967,47.084"/>
	<path stroke="#000000" stroke-width="4.8962" stroke-linecap="round" stroke-linejoin="round" stroke-miterlimit="10" d="
		M235.224,127.437c-16.921-2.917-2.834-21.828,5.789-26.175c9.161-4.619,22.999-3.488,30.823,2.474
		c4.816,3.67,15.307,30.174,3.465,30.697c-6.295,0.278-2.182-11.64-7.506-13.808c-8.418-3.427-8.915,8.763-11.583,12.954
		c-10.762,3.074-3.712-9.708-7.365-13.567C243.041,113.876,241.287,128.053,235.224,127.437z"/>
	
		<path fill="#E3C568" stroke="#000000" stroke-width="4.8962" stroke-linecap="round" stroke-linejoin="round" stroke-miterlimit="10" d="
		M259.529,160.591c-1.151,7.549-4.21,15.146-6.402,22.495c-1.517,5.084-3.212,10.182-5.058,15.156
		c-1.002,2.704-4.168,10.335-1.166,12.621c3.729,2.84,8.288-3.541,9.672-6.213c2.082-4.015,4.825-7.985,7.37-11.767
		c2.945-4.373,6.319-8.96,8.803-13.663c2.167-4.103,4.939-8.834,2.458-13.423c-1.748-3.232-6.863-5.736-10.469-5.606
		c-0.849,0.03-1.616,0.252-2.403,0.6"/>
	
		<path fill="#E3C568" stroke="#000000" stroke-width="4.8962" stroke-linecap="round" stroke-linejoin="round" stroke-miterlimit="10" d="
		M283.962,179.215c5.094-2.736,7.08,7.511,4.766,10.414c-2.272,2.853-5.912,0.846-6.158-2.152c-0.168-2.064-0.248-6.543,2.193-7.46"
		/>
	
		<path fill="#E3C568" stroke="#000000" stroke-width="4.8962" stroke-linecap="round" stroke-linejoin="round" stroke-miterlimit="10" d="
		M293.976,184.222c2.539-2.274,4.819,1.403,4.962,3.605c0.168,2.594,0.029,7.069-2.242,8.822c-3.765,2.905-3.806-1.878-3.921-4.456
		c-0.085-1.888-1.052-7.856,2.203-7.771"/>
	
		<path fill="#E3C568" stroke="#000000" stroke-width="4.8962" stroke-linecap="round" stroke-linejoin="round" stroke-miterlimit="10" d="
		M243.508,161.592c-5.026-1.229-8.121,3.291-9.358,7.6c-1.28,4.457,0.645,10.187,1.748,14.576c0.331,1.314,0.944,5.421,2.393,6.072
		c2.261,1.016,1.946-2.103,2.008-3.404c0.215-4.538,0.914-9.075,2.353-13.468c0.673-2.049,1.34-4.118,1.646-6.169
		c0.434-2.911-0.88-3.106-2.592-5.007"/>
	
		<path fill="#E3C568" stroke="#000000" stroke-width="4.8962" stroke-linecap="round" stroke-linejoin="round" stroke-miterlimit="10" d="
		M204.855,174.409c-3.177,0.965-5.963,4.503-5.562,7.861c0.403,3.381,3.519,5.293,6.563,3.91c2.612-1.186,4.724-3.928,4.807-6.752
		c0.081-2.763-1.14-6.523-4.606-6.019"/>
	
		<path fill="#E3C568" stroke="#000000" stroke-width="4.8962" stroke-linecap="round" stroke-linejoin="round" stroke-miterlimit="10" d="
		M246.712,165.998c-1.559,1.485-1.216,5.173-1.402,7.155c-0.239,2.56-0.253,5.076-0.4,7.66c-0.217,3.806-0.158,7.713-0.781,11.39
		c2.089,0.382,3.774-3.787,4.59-5.181c1.887-3.219,3.013-6.555,3.856-10.199c1.084-4.687,4.399-13.859-3.66-13.429"/>
	
		<path fill="#E3C568" stroke="#000000" stroke-width="4.8962" stroke-linecap="round" stroke-linejoin="round" stroke-miterlimit="10" d="
		M256.525,291.968c-0.467-6.069,2.507-9.351,5.552-14.229c1.448-2.321,2.391-5.646,4.462-7.219
		c4.533,2.498,3.036,13.138,2.803,17.487c-0.168,3.145-1.119,6.417-4.655,6.921c-1.023,0.146-2.937,0.333-3.951,0.054
		c-1.725-0.473-2.24-2.233-4.01-2.613"/>
	
		<path fill="#E3C568" stroke="#000000" stroke-width="4.8962" stroke-linecap="round" stroke-linejoin="round" stroke-miterlimit="10" d="
		M228.888,283.156c-0.259-1.965-1.213-3.802-1.357-5.812c-0.134-1.873-0.227-3.702-0.245-5.604
		c-0.012-1.333,0.192-3.425-0.396-4.605c-1.169-2.349-2.635-0.161-3.761,1.201c-3,3.632-4.527,7.94-4.05,12.617
		c0.201,1.97,0.362,3.558,2.395,4.461c2.113,0.939,5.005,0.566,6.613-1.057"/>
	
		<path fill="#E3C568" stroke="#000000" stroke-width="4.8962" stroke-linecap="round" stroke-linejoin="round" stroke-miterlimit="10" d="
		M210.863,281.153c-2.828-0.578-3.819-0.998-4.666-3.756c-0.724-2.362-0.435-5.375-0.341-7.825c0.114-2.978,1.102-5.663,2.454-8.215
		c2.497,0.633,2.491,2.247,2.949,4.375c0.541,2.516,2.125,4.535,3.264,6.81c2.099,4.187,2.499,10.563-4.061,9.813"/>
	
		<path fill="#E3C568" stroke="#000000" stroke-width="4.8962" stroke-linecap="round" stroke-linejoin="round" stroke-miterlimit="10" d="
		M243.107,288.764c1.33-3.56,5.434-5.802,7.421-9.213c0.905-1.552,1.143-3.207,3.207-1.796c0.968,0.661,1.708,2.299,1.999,3.389
		c0.554,2.07,0.882,6.435-0.396,8.232c-1.809,2.543-7.741,2.925-10.229,1.391"/>
	
		<path fill="#E3C568" stroke="#000000" stroke-width="4.8962" stroke-linecap="round" stroke-linejoin="round" stroke-miterlimit="10" d="
		M273.348,283.156c1.418-1.597,4.234-4.196,6.4-4.611c4.178-0.802,3.36,3.625,2.062,5.822c-0.98,1.657-2.364,4.525-4.056,5.613
		c-2.667,1.715-5.539,0.594-7.811-1.017"/>
	
		<path fill="#E3C568" stroke="#000000" stroke-width="4.8962" stroke-linecap="round" stroke-linejoin="round" stroke-miterlimit="10" d="
		M283.962,274.344c0.579-2.193,1.676-4.317,2.402-6.467c0.375-1.109,0.871-3.324,1.992-4.001c2.925-1.766,3.222,2.707,3.416,4.46
		c0.562,5.066-0.176,12.438-7.009,11.816"/>
	
		<path fill="#E3C568" stroke="#000000" stroke-width="4.8962" stroke-linecap="round" stroke-linejoin="round" stroke-miterlimit="10" d="
		M204.655,265.332c-4.505-0.443-3.932-4.401-4.014-7.763c-0.045-1.82-0.605-6.75,1.462-7.807c2.172-1.109,4.889,8.438,5.356,10.163"
		/>
	
		<path fill="#E3C568" stroke="#000000" stroke-width="4.8962" stroke-linecap="round" stroke-linejoin="round" stroke-miterlimit="10" d="
		M213.066,168.401c-1.903,2.083-4.907,3.502-5.812,6.409c-0.896,2.874,0.144,5.736,3.15,6.208c3.667,0.576,5.892-1.756,7.523-4.812
		c1.099-2.059,2.207-6.077-0.254-7.605"/>
	
		<path fill="#E3C568" stroke="#000000" stroke-width="4.8962" stroke-linecap="round" stroke-linejoin="round" stroke-miterlimit="10" d="
		M224.282,153.18c-10.035,1.805-9.062,13.051-7.61,21.014c0.824,4.515,2.327,8.574,3.559,12.996
		c1.266,4.537,2.55,8.558,5.648,12.243c1.563,1.859,6.879,7.851,9.022,3.62c1.363-2.692-1.996-8.152-2.608-11.023
		c-1.964-9.206,0.665-18.07,1-27.233c0.148-4.046-1.036-5.921-4.005-8.622c-1.61-1.465-2.812-2.926-5.184-2.796
		c-2.112,0.115-3.035,1.417-4.629,2.406"/>
</g>
</svg>
