<?xml version="1.0" encoding="utf-8"?>
<!-- Generator: Adobe Illustrator 15.1.0, SVG Export Plug-In . SVG Version: 6.00 Build 0)  -->
<!DOCTYPE svg PUBLIC "-//W3C//DTD SVG 1.1//EN" "http://www.w3.org/Graphics/SVG/1.1/DTD/svg11.dtd">
<svg version="1.1" id="Layer_1" xmlns="http://www.w3.org/2000/svg" xmlns:xlink="http://www.w3.org/1999/xlink" x="0px" y="0px"
	 width="612px" height="792px" viewBox="0 0 612 792" enable-background="new 0 0 612 792" xml:space="preserve">
<g>
	<g>
		
			<path fill="#A97C50" stroke="#603913" stroke-width="4.6006" stroke-linecap="round" stroke-linejoin="round" stroke-miterlimit="10" d="
			M168.638,754.95l-24.994,2.341c-10.778,0-19.526,8.747-19.526,19.535v16.807c0,0,61.678,0,69.068,0s16.884-8.554,18.47-12.948
			c0.75-2.044-4.035-19.346-9.34-37.195"/>
		
			<path fill="#A97C50" stroke="#603913" stroke-width="4.6006" stroke-linecap="round" stroke-linejoin="round" stroke-miterlimit="10" d="
			M265.557,754.95l24.993,2.341c10.792,0,19.526,8.747,19.526,19.535v16.807c0,0-61.678,0-69.068,0s-16.897-8.554-18.479-12.948
			c-0.741-2.044,4.035-19.346,9.35-37.195"/>
	</g>
	<g>
		
			<path fill="#27AAE1" stroke="#1C75BC" stroke-width="4.6006" stroke-linecap="round" stroke-linejoin="round" stroke-miterlimit="10" d="
			M168.085,453.029c-24.913-12.464-45.822,7.287-52.952,19.292c-7.108,11.986-7.921,34.891-14.458,44.326
			c-1.635,2.372-4.785,6.263-8.64,10.917c-11.497,13.9-10.738,43.823-10.787,50.392c-0.022,3.118-9.008,35.331-10.289,48.98
			c-2.219,23.552,18.461,31.651,26.247,31.701c12.09,0.086,45.948-23.767,38.022-34.033c-10.392-13.456-15.06-33.166-11.933-46.37
			c3.118-13.218-6.349-16.561-5.455-28.084c0.89-11.533,23.956-25.893,30.264-41.851
			C154.391,492.341,193.007,465.496,168.085,453.029z"/>
		
			<path fill="#27AAE1" stroke="#1C75BC" stroke-width="4.6006" stroke-linecap="round" stroke-linejoin="round" stroke-miterlimit="10" d="
			M266.109,453.811c24.913-12.463,45.822,7.278,52.952,19.283c7.107,11.996,7.921,34.892,14.458,44.335
			c1.635,2.372,4.78,6.263,8.64,10.918c11.492,13.9,10.737,43.818,10.782,50.382c0.014,3.127,9.013,35.341,10.293,48.98
			c2.22,23.557-18.47,31.661-26.256,31.711c-12.09,0.085-45.939-23.771-38.014-34.038c10.393-13.456,15.061-33.161,11.934-46.365
			c-3.118-13.218,6.348-16.569,5.449-28.09c-0.885-11.532-23.951-25.892-30.259-41.85
			C279.803,493.118,241.188,466.278,266.109,453.811z"/>
	</g>
	<g>
		<path fill="#262262" stroke="#1C75BC" stroke-width="4.6006" stroke-miterlimit="10" d="M141.703,644.895
			c0,21.489-17.418,123.201-38.898,123.201c-21.485,0-38.903-101.712-38.903-123.201c0-21.48,17.418-38.903,38.903-38.903
			C124.285,605.991,141.703,623.414,141.703,644.895z"/>
		<path fill="#262262" stroke="#1C75BC" stroke-width="4.6006" stroke-miterlimit="10" d="M292.491,645.676
			c0,21.485,17.418,123.202,38.899,123.202c21.484,0,38.903-101.717,38.903-123.202c0-21.489-17.419-38.903-38.903-38.903
			C309.909,606.772,292.491,624.187,292.491,645.676z"/>
	</g>
	<rect x="150.451" y="449.058" fill="#27AAE1" width="133.293" height="63.591"/>
	
		<path fill="#27AAE1" stroke="#1C75BC" stroke-width="4.6006" stroke-linecap="round" stroke-linejoin="round" stroke-miterlimit="10" d="
		M297.276,496.73c0,20.263-11.587,104.916-13.281,113.767c-3.617,18.888-4.08,78.076-2.188,90.288
		c1.024,6.613,4.956,12.66,6.025,19.332c1.114,6.946-4.291,12.508-6.339,18.955c-1.883,5.931,0.588,5.477,6.213,12.899
		c2.961,3.908,4.313,4.025,2.615,8.868c-1.155,3.285-4.627,6.34-7.224,8.227c-8.833,6.425-18.893,11.34-29.415,14.854
		c-11.758,3.922-24.221,2.83-36.585,2.83c-12.355,0-24.827,1.092-36.594-2.83c-10.518-3.514-20.572-8.429-29.414-14.854
		c-2.588-1.887-6.061-4.941-7.211-8.227c-1.703-4.843-0.351-4.96,2.615-8.868c5.621-7.423,8.091-6.969,6.209-12.899
		c-2.049-6.447-7.454-12.009-6.339-18.955c1.069-6.672,5-12.719,6.025-19.332c1.892-12.212,1.429-71.4-2.188-90.288
		c-1.694-8.851-13.281-93.504-13.281-113.767"/>
	<polyline fill="#FFFFFF" stroke="#F7941E" stroke-width="4.6006" stroke-miterlimit="10" points="240.383,450.521 240.383,768.788 
		193.811,768.788 193.811,450.521 	"/>
	<g>
		<g>
			<polygon fill="#C49A6C" stroke="#603913" stroke-width="4.6006" stroke-miterlimit="10" points="428.044,497.499 
				426.426,522.218 445.871,537.548 421.87,543.658 413.294,566.886 400.071,545.944 375.325,544.965 391.153,525.916 
				384.44,502.091 407.448,511.247 			"/>
			<path fill="#C49A6C" stroke="#603913" stroke-width="4.6006" stroke-miterlimit="10" d="M304.522,722.772l-9.816-5.67
				c0,0,79.819-138.248,93.423-161.826c13.609-23.565,23.857-30.632,23.857-30.632l0.579,0.332c0,0-1.244,12.813-14.61,35.97
				C384.58,584.111,304.522,722.772,304.522,722.772z"/>
		</g>
		<polygon fill="#ED1C24" points="451.404,579.694 444.188,572.787 435.146,575.707 438.627,565.679 433.421,556.701 
			442.789,557.395 448.604,548.916 450.917,559.387 459.721,563.142 451.78,568.898 		"/>
		<polygon fill="#F7941E" points="429.875,598.7 427.272,606.267 431.21,613.025 424.154,612.517 419.79,618.907 418.027,611.031 
			411.386,608.228 417.361,603.873 417.614,595.739 423.066,600.929 		"/>
		<polygon fill="#FFF200" points="459.721,638.348 455.333,633.791 449.584,635.377 451.984,629.153 448.901,623.362 
			454.775,624.062 458.625,618.899 459.85,625.549 465.312,628.158 460.185,631.557 		"/>
		<polygon fill="#00A651" points="436.242,655.96 432.797,660.956 434.444,667.063 429.23,664.845 424.699,668.517 424.917,662.142 
			420.486,658.321 425.829,656.602 427.621,650.545 430.688,655.857 		"/>
		<polygon fill="#00AEEF" points="459.713,679.828 458.561,686.052 462.381,690.7 456.863,691.358 454.217,696.973 451.954,691.15 
			446.509,689.966 450.635,685.71 449.91,679.369 454.711,682.574 		"/>
		<polygon fill="#262262" points="440.18,736.52 437.112,731.848 432.029,732.099 434.943,727.301 433.159,721.819 438.032,723.529 
			442.021,719.884 442.101,725.74 446.35,728.97 441.543,730.88 		"/>
		<polygon fill="#662D91" points="447.967,785.937 444.493,781.839 439.585,782.814 441.891,777.752 439.569,772.696 
			444.473,773.646 447.938,769.543 448.663,775.215 453.13,777.727 448.67,780.263 		"/>
	</g>
	<g>
		<path fill="#FDE4E9" stroke="#3C2415" stroke-width="4.6006" stroke-miterlimit="10" d="M316.519,629.147
			c-1.429,2.466-4.578,3.311-7.04,1.891l-12.266-7.076c-2.462-1.429-3.316-4.578-1.887-7.044l14.665-25.385
			c1.42-2.467,4.982-3.459,7.589-2.776c0,0,11.281,1.77,14.282,3.504s21.323,30.435,21.323,30.435L316.519,629.147z"/>
		
			<path fill="#FDE4E9" stroke="#3C2415" stroke-width="4.6006" stroke-linecap="round" stroke-linejoin="round" stroke-miterlimit="10" d="
			M376.52,658.467c-1.429,2.467-4.578,3.316-7.035,1.888l-54.907-31.702c-2.471-1.419-3.315-4.573-1.887-7.035l7.076-12.266
			c1.429-2.467,4.569-3.312,7.036-1.883l54.911,31.702c2.462,1.419,3.311,4.568,1.882,7.031L376.52,658.467z"/>
		
			<path fill="#FDE4E9" stroke="#3C2415" stroke-width="4.6006" stroke-linecap="round" stroke-linejoin="round" stroke-miterlimit="10" d="
			M365.148,678.173c-1.424,2.457-4.582,3.302-7.04,1.887l-59.363-34.28c-2.471-1.429-3.316-4.578-1.896-7.04l6.222-10.778
			c1.429-2.462,4.574-3.307,7.036-1.878l59.377,34.271c2.457,1.429,3.302,4.573,1.883,7.04L365.148,678.173z"/>
		
			<path fill="#FDE4E9" stroke="#3C2415" stroke-width="4.6006" stroke-linecap="round" stroke-linejoin="round" stroke-miterlimit="10" d="
			M353.769,697.869c-1.42,2.457-4.574,3.312-7.04,1.887l-56.385-32.56c-2.471-1.424-3.302-4.582-1.887-7.04l6.222-10.773
			c1.42-2.467,4.565-3.312,7.027-1.887l56.403,32.563c2.458,1.415,3.302,4.569,1.887,7.036L353.769,697.869z"/>
		
			<path fill="#FDE4E9" stroke="#3C2415" stroke-width="4.6006" stroke-linecap="round" stroke-linejoin="round" stroke-miterlimit="10" d="
			M342.973,716.577c-1.42,2.467-4.579,3.307-7.036,1.887l-51.452-29.697c-2.458-1.424-3.302-4.569-1.878-7.04l5.643-9.776
			c1.438-2.476,4.583-3.315,7.045-1.892l51.434,29.697c2.466,1.425,3.311,4.574,1.891,7.04L342.973,716.577z"/>
		<path fill="#FDE4E9" d="M344.419,702.061c-1.415,2.467-4.564,3.312-7.036,1.888l-15.455-8.928
			c-2.471-1.42-3.315-4.569-1.887-7.036l27.855-48.262c1.429-2.475,4.582-3.307,7.04-1.887l15.464,8.923
			c2.463,1.424,3.307,4.578,1.883,7.045L344.419,702.061z"/>
	</g>
	<g>
		<path fill="#FDE4E9" stroke="#000000" stroke-width="4.6006" stroke-miterlimit="10" d="M171.814,692.182
			c-3.109,5.377-10.738,6.797-17.032,3.158L21.902,618.625c-6.299-3.64-8.887-10.953-5.782-16.332l2.736-4.748
			c3.109-5.378,10.738-6.789,17.037-3.154l132.875,76.715c6.303,3.639,8.891,10.953,5.787,16.331L171.814,692.182z"/>
		<g>
			<g>
				<path fill="#FFEEC2" stroke="#000000" stroke-width="4.6006" stroke-miterlimit="10" d="M120.475,645.641
					c19.346-33.513-0.296-44.853-7.229-48.855c-6.937-4.003-67.778-16.021-75.865-20.689l-23.206,8.168L120.475,645.641z"/>
				<path fill="#FFEEC2" stroke="#000000" stroke-width="4.6006" stroke-miterlimit="10" d="M120.475,645.641
					c19.346-33.513,38.989-22.173,45.921-18.17c6.937,4.004,47.768,50.693,55.855,55.361l4.524,24.18L120.475,645.641z"/>
			</g>
			<path fill="#00AEEF" stroke="#000000" stroke-width="4.6006" stroke-miterlimit="10" d="M130.961,663.508L130.961,663.508
				c-1.937,3.343-6.223,4.488-9.57,2.562l-19.063-11.008c-3.352-1.937-4.501-6.223-2.565-9.565l0,0L0,587.895l5.117-8.86
				l230.71,133.203l-5.113,8.859L130.961,663.508z"/>
		</g>
		<path fill="#FDE4E9" stroke="#000000" stroke-width="4.6006" stroke-miterlimit="10" d="M78.359,650.56
			c-1.806,3.136-5.813,4.205-8.949,2.399l-11.017-6.362c-3.131-1.811-4.21-5.813-2.399-8.944l5.077-8.793
			c1.811-3.136,5.818-4.214,8.95-2.399l11.016,6.357c3.136,1.811,4.21,5.818,2.404,8.95L78.359,650.56z"/>
		<path fill="#FDE4E9" stroke="#000000" stroke-width="4.6006" stroke-miterlimit="10" d="M103.505,675.036
			c-1.811,3.132-5.813,4.201-8.945,2.396l-11.021-6.362c-3.132-1.811-4.206-5.813-2.404-8.949l5.086-8.793
			c1.806-3.132,5.813-4.205,8.945-2.403l11.021,6.366c3.131,1.806,4.206,5.813,2.395,8.945L103.505,675.036z"/>
		<path fill="#FDE4E9" stroke="#000000" stroke-width="4.6006" stroke-miterlimit="10" d="M142.66,687.688
			c-1.806,3.136-5.809,4.2-8.945,2.399l-11.021-6.367c-3.127-1.806-4.206-5.809-2.395-8.944l5.077-8.793
			c1.811-3.136,5.813-4.21,8.954-2.399l11.016,6.362c3.127,1.806,4.201,5.818,2.399,8.945L142.66,687.688z"/>
		<path fill="#FDE4E9" stroke="#000000" stroke-width="4.6006" stroke-miterlimit="10" d="M172.146,704.712
			c-1.811,3.136-5.818,4.2-8.945,2.395l-11.016-6.362c-3.136-1.811-4.21-5.809-2.404-8.949l5.082-8.793
			c1.806-3.131,5.818-4.205,8.945-2.395l11.016,6.362c3.136,1.802,4.21,5.818,2.399,8.945L172.146,704.712z"/>
	</g>
</g>
<g>
	<radialGradient id="SVGID_1_" cx="232.1675" cy="298.6196" r="181.5768" gradientUnits="userSpaceOnUse">
		<stop  offset="0.3374" style="stop-color:#FDE4E9"/>
		<stop  offset="1" style="stop-color:#E2B6A2"/>
	</radialGradient>
	
		<path fill="url(#SVGID_1_)" stroke="#000000" stroke-width="4.6006" stroke-linecap="round" stroke-linejoin="round" stroke-miterlimit="10" d="
		M372.458,339.284c-4.991,11.412-5.724,22.999-11.523,34.604c-5.068,10.136-12.396,19.121-18.978,28.368
		c-8.312,11.663-14.75,23.623-25.537,33.534c-7.862,7.225-16.417,14.166-23.569,21.934c-15.99,17.36-26.804,39.249-52.346,41.738
		c-10.918,1.061-26.054,0.553-35.507-5.347c-10.756-6.721-20.487-17.108-29.068-26.444c-7.104-7.723-12.252-15.32-20.366-22.146
		c-9.862-8.315-19.193-17.337-27.869-26.646c-13.91-14.916-27.276-29.733-36.307-48.36c-7.427-15.321-16.83-31.89-18.339-49.129
		c-1.087-12.387,0.782-25.767,1.298-38.148c0.665-16.156,1.069-31.845,5.135-47.547c4.762-18.317,10.055-36.199,14-54.768
		c5.481-25.843,13.389-55.85,36.949-71.391c17.279-11.394,39.128-11.987,59.211-12.185c26.382-0.243,54.493,2.372,79.999,9.381
		c24.292,6.676,48.5,19.777,69.351,33.723c15.981,10.675,29.778,24.792,38.319,42.08c9.718,19.701,14.332,45.813,14.31,67.559
		c-0.014,8.797-0.009,17.508-0.871,26.215c-0.786,7.948-5.544,15.32-6.228,23.246"/>
	
		<path fill="none" stroke="#000000" stroke-width="4.6006" stroke-linecap="round" stroke-linejoin="round" stroke-miterlimit="10" d="
		M297.972,254.15c-16.736,7.022-15.662,39.995-11.506,53.918c2.74,9.192,6.82,17.369,8.842,26.975
		c2.821,13.362-7.602,18.96-17.909,25.528"/>
	
		<path fill="none" stroke="#000000" stroke-width="4.6006" stroke-linecap="round" stroke-linejoin="round" stroke-miterlimit="10" d="
		M232.705,328.646c-5.751,5.131-12.377,24.764-0.049,27.559c7.409,1.681,22.913-13.424,28.431,0.112"/>
	
		<path fill="none" stroke="#000000" stroke-width="4.6006" stroke-linecap="round" stroke-linejoin="round" stroke-miterlimit="10" d="
		M226.321,256.284c-9.376-23.484-49.12-40.184-69.526-22.702"/>
	
		<path fill="#00AEEF" stroke="#000000" stroke-width="4.6006" stroke-linecap="round" stroke-linejoin="round" stroke-miterlimit="10" d="
		M137.642,210.88c15.419-8.199,35.525-9.336,52.525-4.951c14.889,3.837,29.149,17.76,45.27,16.902
		c3.302-15.662-36.306-27.011-47.583-27.554c-11.974-0.588-54.255-1.784-53.761,16.313L137.642,210.88z"/>
	
		<path fill="#FDD7C6" stroke="#000000" stroke-width="4.6006" stroke-linecap="round" stroke-linejoin="round" stroke-miterlimit="10" d="
		M194.399,400.297c8.456-0.054,16.107,2.975,24.876,2.125c6.021-0.58,11.34-3.104,16.974-4.946
		c5.153-1.672,10.185-4.224,15.055-5.491c6.793-1.792,12.027,2.332,18.286,1.766c5.926-0.526,9.713-4.749,16.322-2.875
		c3.801,1.087,13.887,6.797,15.091,10.684c1.563,5.063-4.87,8.056-5.868,12.926c-1.087,5.346,0.404,8.688-2.129,14.188
		c-10.217,22.203-43.581,25.883-63.888,16.492c-8.94-4.129-16.178-11.016-22.662-18.618c-3.23-3.782-17.104-18.361-16.511-23.241
		c0.247-2.004,0.364-2.597,3.028-3.01H194.399z"/>
	
		<path fill="#FFFFFF" stroke="#000000" stroke-width="4.6006" stroke-linecap="round" stroke-linejoin="round" stroke-miterlimit="10" d="
		M214.258,409.521c23.502,14.157,54.682,21.269,76.512-0.845c-4.672-9.925-31.503-3.02-40.332-2.152
		c-12.418,1.227-24.922,2.287-37.596,2.287L214.258,409.521z"/>
	<g>
		<defs>
			<path id="SVGID_2_" d="M220.642,257.704c-4.965-7.764-16.183-14.552-24.293-18.272c-5.095-2.332-10.396-3.006-16.147-3.01
				c-4.627-0.004-20.532,0.373-23.457,4.219c-2.386,3.154,0.777,12.499,3.406,15.141c4.34,4.367,12.759,6.254,18.425,7.04
				c7.935,1.101,14.709-0.436,22.19-1.595c4.228-0.647,18.362,0.728,19.876-2.103V257.704z"/>
		</defs>
		<clipPath id="SVGID_3_">
			<use xlink:href="#SVGID_2_"  overflow="visible"/>
		</clipPath>
		<g clip-path="url(#SVGID_3_)">
			<path fill="#FFFFFF" stroke="#000000" stroke-width="4.6006" stroke-linecap="round" stroke-miterlimit="10" d="M146.96,246.975
				c0,21.197,18.294,38.396,40.862,38.396c22.577,0,40.871-17.198,40.871-38.396c0-21.21-18.294-38.405-40.871-38.405
				C165.254,208.57,146.96,225.765,146.96,246.975z"/>
			<g>
				<path fill="#27AAE1" stroke="#2E3192" stroke-width="1.532" stroke-linecap="round" stroke-miterlimit="10" d="M195.518,246.975
					c0,6.878-5.576,12.445-12.463,12.445c-6.87,0-12.454-5.567-12.454-12.445c0-6.883,5.584-12.463,12.454-12.463
					C189.942,234.512,195.518,240.092,195.518,246.975z"/>
				<path stroke="#000000" stroke-width="1.532" stroke-linecap="round" stroke-miterlimit="10" d="M189.026,246.975
					c0,3.289-2.673,5.966-5.966,5.966c-3.289,0-5.966-2.678-5.966-5.966c0-3.298,2.678-5.971,5.966-5.971
					C186.353,241.004,189.026,243.677,189.026,246.975z"/>
				<path fill="#FFFFFF" d="M195.855,241.004c0,2.673-2.17,4.83-4.848,4.83c-2.669,0-4.834-2.157-4.834-4.83
					c0-2.678,2.166-4.839,4.834-4.839C193.685,236.166,195.855,238.327,195.855,241.004z"/>
				<path fill="#FFFFFF" d="M189.287,242.132c0,1.725-1.388,3.114-3.109,3.114s-3.118-1.389-3.118-3.114
					c0-1.716,1.397-3.118,3.118-3.118S189.287,240.416,189.287,242.132z"/>
			</g>
		</g>
	</g>
	<g>
		<defs>
			<path id="SVGID_4_" d="M299.387,268.343c1.389-15.478,44.196-21.529,53.02-11.915c8.087,8.815,0.988,16.48-8.303,18.317
				c-12.234,2.422-28.628-0.391-40.454-3.562L299.387,268.343z"/>
		</defs>
		<clipPath id="SVGID_5_">
			<use xlink:href="#SVGID_4_"  overflow="visible"/>
		</clipPath>
		<g clip-path="url(#SVGID_5_)">
			<path fill="#FFFFFF" stroke="#000000" stroke-width="4.6006" stroke-linecap="round" stroke-miterlimit="10" d="M290.663,263.724
				c0,17.634,14.305,31.935,31.93,31.935c17.634,0,31.922-14.301,31.922-31.935c0-17.629-14.288-31.917-31.922-31.917
				C304.967,231.808,290.663,246.095,290.663,263.724z"/>
			<g>
				<path fill="#27AAE1" stroke="#2E3192" stroke-width="1.532" stroke-linecap="round" stroke-miterlimit="10" d="M330.28,263.724
					c0,6.883-5.576,12.463-12.459,12.463c-6.874,0-12.458-5.58-12.458-12.463c0-6.874,5.584-12.449,12.458-12.449
					C324.704,251.275,330.28,256.85,330.28,263.724z"/>
				<path stroke="#000000" stroke-width="1.532" stroke-linecap="round" stroke-miterlimit="10" d="M323.792,263.724
					c0,3.298-2.673,5.971-5.971,5.971s-5.962-2.673-5.962-5.971c0-3.289,2.664-5.958,5.962-5.958S323.792,260.436,323.792,263.724z"
					/>
				<path fill="#FFFFFF" d="M330.617,257.758c0,2.678-2.161,4.843-4.844,4.843c-2.664,0-4.834-2.166-4.834-4.843
					c0-2.668,2.17-4.834,4.834-4.834C328.456,252.924,330.617,255.089,330.617,257.758z"/>
				<path fill="#FFFFFF" d="M324.053,258.89c0,1.721-1.393,3.118-3.113,3.118s-3.118-1.397-3.118-3.118s1.397-3.109,3.118-3.109
					S324.053,257.169,324.053,258.89z"/>
			</g>
		</g>
	</g>
	
		<path fill="none" stroke="#000000" stroke-width="4.6006" stroke-linecap="round" stroke-linejoin="round" stroke-miterlimit="10" d="
		M220.642,257.704c-4.965-7.764-16.183-14.552-24.293-18.272c-5.095-2.332-10.396-3.006-16.147-3.01
		c-4.627-0.004-20.532,0.373-23.457,4.219c-2.386,3.154,0.777,12.499,3.406,15.141c4.34,4.367,12.759,6.254,18.425,7.04
		c7.935,1.101,14.709-0.436,22.19-1.595c4.228-0.647,18.362,0.728,19.876-2.103V257.704z"/>
	
		<path fill="none" stroke="#000000" stroke-width="4.6006" stroke-linecap="round" stroke-linejoin="round" stroke-miterlimit="10" d="
		M299.387,268.343c1.389-15.478,44.196-21.529,53.02-11.915c8.087,8.815,0.988,16.48-8.303,18.317
		c-12.234,2.422-28.628-0.391-40.454-3.562L299.387,268.343z"/>
	<g>
		<linearGradient id="SVGID_6_" gradientUnits="userSpaceOnUse" x1="81.6763" y1="435.9395" x2="81.6763" y2="64.0239">
			<stop  offset="0.1656" style="stop-color:#EC008C"/>
			<stop  offset="0.8344" style="stop-color:#00AEEF"/>
		</linearGradient>
		<path fill="url(#SVGID_6_)" stroke="#000000" stroke-width="4.6006" stroke-linecap="round" stroke-miterlimit="10" d="
			M130.552,64.023c-21.085,0.726-39.294,0.732-57.503,12.804c-15.464,10.266-27.016,20.892-31.908,39.124
			c-4.08,15.217-4.969,28.727-4.205,44.573c0.647,13.416-14.247,21.071-14.22,36.163c0.018,11.901,5.652,24.158,3.54,37.088
			c-3.666,22.527-3.428,43.697,3.396,65.972c4.39,14.341,14.373,24.71,18.614,38.827c4.785,15.904,7.036,31.602,15.554,46.999
			c4.771,8.622,12.185,13.505,16.924,21.588c3.141,5.351,5.634,11.528,10.788,15.042c1.923-2.615,2.156-5.625,2.053-8.941
			c4.174,5.729,26.292,30.165,34.729,20.397c2.22-2.579,0.306-13.334,0.117-17.046c-0.427-8.778-2.21-12.714-6.928-20.042
			c-15.32-23.771-21.929-52.067-25.757-80.147c-4.309-31.557-0.395-67.136,9.287-97.054c3.693-11.443,8.056-24.045,12.751-35.421
			c5.311-12.863,13.128-24.594,17.023-37.592c3.841-12.84,6.833-27.33,5.513-40.992c-1.006-10.495-1.384-26.508-9.066-34.244"/>
		<linearGradient id="SVGID_7_" gradientUnits="userSpaceOnUse" x1="103.7036" y1="91.0518" x2="103.7036" y2="29.7554">
			<stop  offset="0.1656" style="stop-color:#EC008C"/>
			<stop  offset="0.8344" style="stop-color:#00AEEF"/>
		</linearGradient>
		<path fill="url(#SVGID_7_)" stroke="#000000" stroke-width="4.6006" stroke-linecap="round" stroke-miterlimit="10" d="
			M147.732,37.064c-10.221-6.315-34.428-9.458-44.815-5.67c-14.188,5.173-25.079,12.744-33.382,25.537
			c-3.917,6.036-15.482,27.237-6.56,33.537c4.735,3.342,4.735-8.617,6.012-12.095c1.981-5.445,5.387-10.183,9.771-14.188
			c14.332-13.11,38.171-11.744,54.781-0.162"/>
		<linearGradient id="SVGID_8_" gradientUnits="userSpaceOnUse" x1="276.3965" y1="430.0928" x2="276.3965" y2="4.547474e-13">
			<stop  offset="0.1656" style="stop-color:#EC008C"/>
			<stop  offset="0.8344" style="stop-color:#00AEEF"/>
		</linearGradient>
		<path fill="url(#SVGID_8_)" stroke="#000000" stroke-width="4.6006" stroke-linecap="round" stroke-miterlimit="10" d="
			M154.665,25.718C193.95-3.277,246.026-6.395,291.426,9.559c22.32,7.838,43.562,20.476,63.937,31.735
			c16.35,9.023,28.579,21.282,39.29,36.225c16.965,23.673,25.788,56.358,28.183,85.117c1.456,17.526,0.822,35.628-0.004,53.204
			c-0.306,6.501-1.105,13.339-1.415,19.872c-0.44,9.094,0.983,16.565,2.129,25.533c2.7,21.377,4.026,48.334-0.147,69.473
			c-1.052,5.351-3.892,9.771-5.001,14.957c-1.187,5.535,0.112,11.124-0.534,17.019c-1.061,9.75-5.36,21.615-11.376,29.396
			c0.786-9.857,10.113-31.005-3.572-37.142c-4.578,6.856-3.72,21.808-2.237,29.742c2.332,12.338,12.404,21.242,19.423,30.942
			c-15.954-8.928-36.132-19.185-35.004-40.714c-6.568,14.84-2.614,41.267,4.825,55.176c-28.821-10.791-26.391-46.172-23.686-70.069
			c7.08-62.45-44.349-121.715-93.954-154.283c-17.257-11.327-35.214-21.026-51.515-33.737
			c-12.301-9.597-24.931-15.958-39.146-22.154c-20.479-8.932-50.005-15.083-53.932-40.575
			C123.521,82.21,132.906,44.437,154.665,25.718z"/>
		<linearGradient id="SVGID_9_" gradientUnits="userSpaceOnUse" x1="309.7656" y1="281.8911" x2="309.7656" y2="86.73">
			<stop  offset="0.1656" style="stop-color:#EC008C"/>
			<stop  offset="0.8344" style="stop-color:#00AEEF"/>
		</linearGradient>
		<path fill="url(#SVGID_9_)" stroke="#000000" stroke-width="4.6006" stroke-linecap="round" stroke-miterlimit="10" d="
			M200.784,133.554c1.527,30.969,26.809,52.768,51.236,68.843c16.462,10.841,34.339,19.553,51.47,29.23
			c14.53,8.213,28.759,16.17,44.748,21.638c11.269,3.855,23.938,5.885,34.829,10.823c6.254,2.831,12.292,6.213,18.47,9.403
			c1.869,0.961,11.694,8.662,13.505,8.393c9.152-1.33-5.368-17.796-7.655-20.671c-6.034-7.606-11.358-12.513-10.639-22.559
			c5.256-0.584,10.315,0.8,15.347,1.204c0.746-9.372-18.146-10.32-15.527-20.46c1.748-6.739,24.94-2.373,21.907-12.652
			c-4.596-1.6-39.393-7.265-38.984-9.336c1.371-6.996,32.196,5.984,30.479-6.996c-26.565,1.379-43.607-18.888-62.481-33.593
			c-13.519-10.544-26.503-20.729-38.31-33.031c-9-9.376-28.948-23.69-31.073-37.061"/>
		<linearGradient id="SVGID_10_" gradientUnits="userSpaceOnUse" x1="252.8599" y1="106.5215" x2="252.8599" y2="42.1436">
			<stop  offset="0.1656" style="stop-color:#EC008C"/>
			<stop  offset="0.8344" style="stop-color:#00AEEF"/>
		</linearGradient>
		<path fill="url(#SVGID_10_)" stroke="#000000" stroke-width="4.6006" stroke-linecap="round" stroke-miterlimit="10" d="
			M194.31,42.144c30.165,21.419,68.115,33.916,102.126,45.112c4.601,1.514,37.515,6.087,36.172,12.809
			c-1.923,9.624-35.035,5.841-41.159,5.126c-26.692-3.096-50.045-12.724-75.664-19.737c-14.718-4.035-29.266-9.363-42.713-16.486"/>
		<linearGradient id="SVGID_11_" gradientUnits="userSpaceOnUse" x1="281.2188" y1="188.1709" x2="281.2188" y2="108.7271">
			<stop  offset="0.1656" style="stop-color:#EC008C"/>
			<stop  offset="0.8344" style="stop-color:#00AEEF"/>
		</linearGradient>
		<path fill="url(#SVGID_11_)" stroke="#000000" stroke-width="4.6006" stroke-linecap="round" stroke-miterlimit="10" d="
			M225.611,108.727c16.035,18.101,49.219,26.57,71.737,32.82c18.376,5.099,36.666,8.06,55.405,9.897
			c8.038,0.782,16.143,1.079,24.019,2.687c7.674,1.554-28.363,12.499-43.252,14.44c1.227,7.615,30.276,11.901,37.568,13.757
			c2.844,0.723,16.821,5.297,16.821,5.297s-59.139,2.534-83.553-3.315c-19.939-4.776-43.495-14.058-63.106-21.139
			c-22.94-8.285-44.767-19.229-66.723-29.617"/>
		<linearGradient id="SVGID_12_" gradientUnits="userSpaceOnUse" x1="244.3687" y1="244.1831" x2="244.3687" y2="103.0435">
			<stop  offset="0.1656" style="stop-color:#EC008C"/>
			<stop  offset="0.8344" style="stop-color:#00AEEF"/>
		</linearGradient>
		<path fill="url(#SVGID_12_)" stroke="#000000" stroke-width="4.6006" stroke-linecap="round" stroke-miterlimit="10" d="
			M141.191,125.04c28.983,53.177,74.747,109.14,139.008,117.73c11.528,1.536,26.328,2.174,37.641,0.072
			c7.871-1.465,25.995-6.398,29.706-14.224c-4.138-6.218-30.569-1.024-38.926-1.424c-12.629-0.606-28.233-0.769-40.48-5.126
			c-20.42-7.251-39.604-23.992-51.941-41.531c-16.561-23.547-28.997-49.938-38.113-77.492"/>
	</g>
</g>
</svg>
